<svg width="50" height="50" viewBox="0 0 50 50" fill="none" xmlns="http://www.w3.org/2000/svg">
<path d="M43.0556 11.1111H31.9444V13.8889H43.0556V43.0555H31.9444V45.8333H45.8333V13.8889C45.8333 13.1521 45.5407 12.4456 45.0197 11.9247C44.4988 11.4037 43.7923 11.1111 43.0556 11.1111Z" fill="white"/>
<path d="M27.6111 4.16669H8.49999C7.71907 4.16669 6.97014 4.4769 6.41795 5.02909C5.86576 5.58129 5.55554 6.33022 5.55554 7.11113V45.8334H30.5555V7.11113C30.5555 6.33022 30.2453 5.58129 29.6931 5.02909C29.1409 4.4769 28.392 4.16669 27.6111 4.16669ZM27.7778 43.0556H23.6111V38.8889H12.5V43.0556H8.33332V7.11113C8.33332 7.08924 8.33763 7.06757 8.34601 7.04735C8.35438 7.02713 8.36666 7.00876 8.38214 6.99328C8.39761 6.9778 8.41599 6.96553 8.43621 6.95715C8.45643 6.94878 8.4781 6.94446 8.49999 6.94446H27.6111C27.633 6.94446 27.6547 6.94878 27.6749 6.95715C27.6951 6.96553 27.7135 6.9778 27.729 6.99328C27.7444 7.00876 27.7567 7.02713 27.7651 7.04735C27.7735 7.06757 27.7778 7.08924 27.7778 7.11113V43.0556Z" fill="white"/>
<path d="M11.1111 11.1111H13.8889V13.8889H11.1111V11.1111Z" fill="white"/>
<path d="M16.6667 11.1111H19.4444V13.8889H16.6667V11.1111Z" fill="white"/>
<path d="M22.2222 11.1111H25V13.8889H22.2222V11.1111Z" fill="white"/>
<path d="M11.1111 18.0555H13.8889V20.8333H11.1111V18.0555Z" fill="white"/>
<path d="M16.6667 18.0555H19.4444V20.8333H16.6667V18.0555Z" fill="white"/>
<path d="M22.2222 18.0555H25V20.8333H22.2222V18.0555Z" fill="white"/>
<path d="M11.1111 25H13.8889V27.7778H11.1111V25Z" fill="white"/>
<path d="M16.6667 25H19.4444V27.7778H16.6667V25Z" fill="white"/>
<path d="M22.2222 25H25V27.7778H22.2222V25Z" fill="white"/>
<path d="M11.1111 31.9445H13.8889V34.7222H11.1111V31.9445Z" fill="white"/>
<path d="M16.6667 31.9445H19.4444V34.7222H16.6667V31.9445Z" fill="white"/>
<path d="M22.2222 31.9445H25V34.7222H22.2222V31.9445Z" fill="white"/>
<path d="M31.9444 18.0555H34.7222V20.8333H31.9444V18.0555Z" fill="white"/>
<path d="M37.5 18.0555H40.2778V20.8333H37.5V18.0555Z" fill="white"/>
<path d="M31.9444 25H34.7222V27.7778H31.9444V25Z" fill="white"/>
<path d="M37.5 25H40.2778V27.7778H37.5V25Z" fill="white"/>
<path d="M31.9444 31.9445H34.7222V34.7222H31.9444V31.9445Z" fill="white"/>
<path d="M37.5 31.9445H40.2778V34.7222H37.5V31.9445Z" fill="white"/>
</svg>
