<svg width="128" height="32" viewBox="0 0 128 32" fill="none" xmlns="http://www.w3.org/2000/svg">
<path d="M32.9152 17.5417C32.2886 17.2284 31.5973 17.0663 30.8967 17.0681C30.6175 17.0466 30.3387 17.1148 30.1009 17.2626C30.0145 17.3233 29.9444 17.4044 29.8966 17.4986C29.8489 17.5927 29.8251 17.6972 29.8272 17.8028C29.8272 18.1809 30.1099 18.4498 30.6753 18.6095C31.6776 18.8868 32.3817 19.2163 32.7874 19.598C32.9883 19.7881 33.1466 20.0186 33.2518 20.2744C33.357 20.5301 33.4068 20.8053 33.3978 21.0817C33.3978 21.7948 33.1577 22.3392 32.6776 22.7149C32.1974 23.0906 31.4814 23.2791 30.5294 23.2803C30.0819 23.2765 29.6371 23.2105 29.2078 23.084C28.8004 22.9756 28.4127 22.8037 28.059 22.5744L28.4605 21.233C29.0837 21.6833 29.8309 21.9298 30.5996 21.9388C30.8806 21.9588 31.16 21.8826 31.3919 21.7228C31.4808 21.6488 31.5512 21.5551 31.5975 21.4491C31.6438 21.3432 31.6646 21.2278 31.6584 21.1123C31.6617 21.0144 31.6442 20.9169 31.6069 20.8262C31.5697 20.7356 31.5136 20.6539 31.4423 20.5866C31.2176 20.4127 30.9577 20.2898 30.6807 20.2264C29.7588 19.9563 29.0961 19.6322 28.7 19.2487C28.5029 19.065 28.3469 18.8417 28.2424 18.5934C28.1378 18.3451 28.0869 18.0775 28.0932 17.8082C28.0829 17.5155 28.143 17.2246 28.2683 16.9599C28.3936 16.6951 28.5805 16.4643 28.8134 16.2867C29.2936 15.9085 29.9676 15.7201 30.8355 15.7213C31.6587 15.7027 32.4757 15.8682 33.2268 16.2056L32.9152 17.5417Z" fill="black"/>
<path d="M38.9872 20.014H36.4339V23.1921H34.7216V15.8293H36.4339V18.7103H38.9872V15.8293H40.7068V23.1921H38.9926L38.9872 20.014Z" fill="black"/>
<path d="M41.7725 23.1921L44.2645 15.8293H46.0652L48.5464 23.1921H46.7368L46.3028 21.5967H43.9728L43.5497 23.1921H41.7725ZM44.3347 20.2967H45.9679L45.1612 17.3094H45.1414L44.3347 20.2967Z" fill="black"/>
<path d="M49.6288 15.8293H54.2384V17.2104H51.3574V18.885H54.0493V20.167H51.3484V23.1921H49.6342L49.6288 15.8293Z" fill="black"/>
<path d="M55.6522 15.8293H60.2618V17.2104H57.3754V18.885H60.0674V20.167H57.3754V23.1921H55.6522V15.8293Z" fill="black"/>
<path d="M62.2515 16.7458C62.9249 16.0663 63.8312 15.7266 64.9704 15.7266C66.1096 15.7266 67.0153 16.0663 67.6876 16.7458C68.3646 17.4252 68.7031 18.3465 68.7031 19.5097C68.7031 20.673 68.3646 21.5943 67.6876 22.2737C67.0129 22.9519 66.1072 23.2911 64.9704 23.2911C63.8336 23.2911 62.9273 22.9519 62.2515 22.2737C61.5732 21.5895 61.2341 20.6681 61.2341 19.5097C61.2341 18.3513 61.5732 17.43 62.2515 16.7458ZM63.5119 21.2744C63.7029 21.4656 63.9297 21.6173 64.1793 21.7207C64.429 21.8242 64.6966 21.8775 64.9668 21.8775C65.2371 21.8775 65.5047 21.8242 65.7543 21.7207C66.004 21.6173 66.2308 21.4656 66.4217 21.2744C66.7675 20.8698 66.9403 20.2834 66.9403 19.5151C66.9403 18.7469 66.7675 18.1611 66.4217 17.7577C66.0351 17.3712 65.5108 17.1541 64.9641 17.1541C64.4174 17.1541 63.8931 17.3712 63.5065 17.7577C63.1626 18.1629 62.9879 18.7481 62.9879 19.5151C62.9879 20.2822 63.1644 20.8692 63.5119 21.2744Z" fill="black"/>
<path d="M69.8214 15.8293H74.4328V17.2104H71.5356V18.885H74.2365V20.167H71.5356V23.1921H69.8214V15.8293Z" fill="black"/>
<path d="M84.3952 22.6465V22.6663C84.85 22.898 85.2695 23.1933 85.6412 23.5432C86.0025 23.8788 86.3066 24.2711 86.5415 24.7046H84.6977C84.3376 24.0852 84.0279 23.6962 83.756 23.5324C83.4841 23.3685 82.9997 23.2893 82.3155 23.2893C81.1775 23.2893 80.2718 22.9502 79.5983 22.2719C78.9249 21.5937 78.5864 20.6724 78.5828 19.508C78.5828 18.3436 78.9213 17.4223 79.5983 16.744C80.2754 16.0658 81.1763 15.7261 82.3011 15.7249C83.4355 15.7249 84.3418 16.0646 85.02 16.744C85.6982 17.4235 86.0362 18.3448 86.0338 19.508C86.043 20.1393 85.8951 20.763 85.6034 21.323C85.3206 21.8603 84.9046 22.316 84.3952 22.6465ZM80.8498 21.278C81.0409 21.4693 81.2678 21.621 81.5176 21.7245C81.7674 21.828 82.0352 21.8813 82.3056 21.8813C82.576 21.8813 82.8437 21.828 83.0935 21.7245C83.3433 21.621 83.5702 21.4693 83.7614 21.278C84.1053 20.8729 84.2799 20.2876 84.2799 19.5206C84.2799 18.7535 84.1089 18.1665 83.7614 17.7614C83.3744 17.3748 82.8498 17.1576 82.3029 17.1576C81.7559 17.1576 81.2313 17.3748 80.8443 17.7614C80.4998 18.1671 80.327 18.7535 80.3258 19.5206C80.3246 20.2876 80.4992 20.8723 80.8498 21.2744V21.278Z" fill="black"/>
<path d="M88.8448 15.8293V20.2967C88.8448 21.3771 89.2547 21.9172 90.0746 21.9172C90.8945 21.9172 91.3015 21.3771 91.2955 20.2967V15.8293H92.9898V20.185C92.9898 21.2078 92.7378 21.9815 92.2336 22.506C91.7294 23.0318 91.002 23.2875 90.0548 23.2875C89.1077 23.2875 88.3784 23.0264 87.8725 22.506C87.3665 21.9857 87.109 21.2078 87.109 20.185V15.8293H88.8448Z" fill="black"/>
<path d="M96.1478 20.4677V23.1921H94.4624V15.8779C95.2662 15.7761 96.0759 15.7286 96.886 15.7357C97.8944 15.7357 98.6459 15.9253 99.1404 16.3047C99.3857 16.4949 99.5813 16.7416 99.7104 17.0238C99.8396 17.306 99.8986 17.6153 99.8823 17.9252C99.888 18.3621 99.7508 18.7889 99.4915 19.1406C99.2341 19.5013 98.8721 19.7741 98.4544 19.9221V19.9419C98.8037 20.1388 99.0888 20.5391 99.3097 21.1429L100.091 23.2119H98.3265L97.6279 21.2132C97.5738 20.9887 97.4548 20.7852 97.2858 20.628C97.0983 20.5138 96.8799 20.4609 96.661 20.4767L96.1478 20.4677ZM96.1478 19.2073H96.706C97.0896 19.2335 97.4708 19.1281 97.7864 18.9084C97.9096 18.8092 98.0078 18.6823 98.0729 18.5381C98.1379 18.3939 98.1681 18.2363 98.1609 18.0783C98.1609 17.3772 97.6999 17.0273 96.778 17.0285C96.5651 17.0254 96.3526 17.046 96.1442 17.0897L96.1478 19.2073Z" fill="black"/>
<path d="M106.73 15.8293V21.7714H109.838V23.1939H104.966V15.8293H106.73Z" fill="black"/>
<path d="M111.309 23.1921V15.8293H113.196V23.1921H111.309Z" fill="black"/>
<path d="M119.529 17.5417C118.903 17.2292 118.212 17.067 117.512 17.0681C117.233 17.0466 116.954 17.1147 116.717 17.2626C116.63 17.3232 116.56 17.4042 116.513 17.4985C116.465 17.5927 116.442 17.6973 116.445 17.8027C116.445 18.1809 116.726 18.4492 117.291 18.6094C118.292 18.8867 118.997 19.2162 119.405 19.598C119.605 19.7883 119.763 20.0189 119.869 20.2746C119.974 20.5303 120.024 20.8053 120.015 21.0817C120.015 21.7947 119.775 22.3391 119.295 22.7149C118.815 23.0906 118.098 23.2791 117.145 23.2803C116.698 23.2771 116.253 23.211 115.823 23.084C115.416 22.9753 115.027 22.8033 114.673 22.5744L115.078 21.2329C115.701 21.6832 116.447 21.9297 117.215 21.9388C117.493 21.957 117.768 21.8809 117.997 21.7227C118.086 21.6489 118.157 21.5552 118.203 21.4493C118.25 21.3433 118.271 21.2279 118.265 21.1123C118.269 21.0142 118.251 20.9165 118.213 20.8257C118.176 20.735 118.119 20.6535 118.047 20.5865C117.823 20.412 117.563 20.289 117.286 20.2264C116.365 19.9563 115.703 19.6322 115.305 19.2487C115.108 19.0648 114.952 18.8414 114.848 18.5931C114.744 18.3449 114.693 18.0773 114.7 17.8081C114.69 17.5154 114.75 17.2245 114.875 16.9598C115 16.6951 115.187 16.4642 115.42 16.2866C115.9 15.9085 116.574 15.72 117.442 15.7212C118.264 15.703 119.08 15.8685 119.83 16.2056L119.529 17.5417Z" fill="black"/>
<path d="M101.388 23.1921V15.8293H103.275V23.1921H101.388Z" fill="black"/>
<path d="M125.603 20.014H123.051V23.1921H121.335V15.8293H123.051V18.7103H125.603V15.8293H127.317V23.1921H125.603V20.014Z" fill="black"/>
<path d="M28.054 31.8044V27.7188H28.5077L29.9608 30.1839H29.9716L31.4283 27.7188H31.8965V31.8044H31.4499V28.4697H31.4391L30.1787 30.5854H29.7645L28.5041 28.4643H28.4951V31.799L28.054 31.8044Z" fill="black"/>
<path d="M33.0161 31.8044V27.7188H33.5041V31.8044H33.0161Z" fill="black"/>
<path d="M35.089 27.7188V31.4317H37.0841V31.8224H34.619V27.7188H35.089Z" fill="black"/>
<path d="M38.3655 27.7188V31.4317H40.3642V31.8224H37.8973V27.7188H38.3655Z" fill="black"/>
<path d="M41.339 31.8044V27.7188H41.8252V31.8044H41.339Z" fill="black"/>
<path d="M43.1646 27.7189L44.3368 29.6995H44.3476L45.5342 27.7189H46.0438L44.5727 30.0705V31.7991H44.1171V30.0705L42.646 27.7135L43.1646 27.7189Z" fill="black"/>
<path d="M48.0387 31.8044L49.5296 27.7188H50.032L51.5211 31.8044H51.0457L50.6316 30.6124H48.9084L48.4997 31.8044H48.0387ZM49.0362 30.2559H50.5128L49.7925 28.124H49.7799L49.0362 30.2559Z" fill="black"/>
<path d="M52.5208 27.7188L53.5381 29.4222H53.5507L54.5735 27.7188H55.0777L53.8172 29.7337L55.0993 31.8044H54.5735L53.5309 30.047L52.4848 31.8044H51.9734L53.2554 29.7337L51.995 27.7188H52.5208Z" fill="black"/>
<path d="M58.4829 30.6304C58.4829 31.4515 57.9493 31.862 56.8821 31.862C56.5321 31.8618 56.1827 31.8317 55.8378 31.772V27.753C56.1646 27.6938 56.496 27.6643 56.8281 27.6648C57.8101 27.6648 58.3004 27.9949 58.2992 28.6551C58.3025 28.8724 58.2219 29.0827 58.0741 29.2421C57.9096 29.4152 57.6936 29.5307 57.4583 29.5716V29.5842C57.7431 29.6107 58.0105 29.7332 58.2164 29.9317C58.306 30.024 58.3758 30.1335 58.4217 30.2536C58.4675 30.3737 58.4883 30.5019 58.4829 30.6304ZM56.8191 28.0285C56.6378 28.0265 56.4567 28.0434 56.2789 28.0789V29.4276H56.6535C57.4673 29.4276 57.8725 29.1881 57.8725 28.7073C57.8791 28.6072 57.8593 28.5071 57.8151 28.417C57.7708 28.3269 57.7037 28.2501 57.6204 28.1941C57.3747 28.0632 57.0966 28.0057 56.8191 28.0285ZM58.0399 30.5926C58.0469 30.47 58.0198 30.348 57.9616 30.2399C57.9035 30.1319 57.8165 30.042 57.7104 29.9804C57.3797 29.8266 57.0155 29.7591 56.6516 29.7841H56.2771V31.4479C56.4745 31.4827 56.6745 31.4996 56.8749 31.4983C57.6564 31.4983 58.0471 31.194 58.0471 30.5854L58.0399 30.5926Z" fill="black"/>
<path d="M62.3777 31.2876C61.9851 31.6563 61.4668 31.8615 60.9282 31.8615C60.3897 31.8615 59.8713 31.6563 59.4787 31.2876C59.1252 30.858 58.9319 30.3189 58.9319 29.7625C58.9319 29.2061 59.1252 28.667 59.4787 28.2374C59.8717 27.8695 60.3899 27.6648 60.9282 27.6648C61.4665 27.6648 61.9847 27.8695 62.3777 28.2374C62.7306 28.6673 62.9235 29.2063 62.9235 29.7625C62.9235 30.3187 62.7306 30.8577 62.3777 31.2876ZM60.9372 31.4821C61.146 31.49 61.354 31.4523 61.5468 31.3718C61.7395 31.2913 61.9125 31.1698 62.0536 31.0157C62.3296 30.6535 62.4791 30.2107 62.4791 29.7553C62.4791 29.2999 62.3296 28.8571 62.0536 28.4949C61.7596 28.1982 61.3598 28.0304 60.9422 28.0284C60.5245 28.0264 60.1231 28.1903 59.8262 28.4841L59.8154 28.4949C59.5394 28.8571 59.39 29.2999 59.39 29.7553C59.39 30.2107 59.5394 30.6535 59.8154 31.0157C59.9559 31.1705 60.1283 31.2929 60.3208 31.3744C60.5132 31.4558 60.7211 31.4944 60.93 31.4875L60.9372 31.4821Z" fill="black"/>
<path d="M63.6217 31.8044V27.7494C63.9673 27.6907 64.3173 27.6623 64.6679 27.6648C65.1876 27.6648 65.582 27.7602 65.8509 27.9511C65.9794 28.0444 66.0825 28.1685 66.1508 28.3119C66.219 28.4553 66.2503 28.6136 66.2416 28.7722C66.2528 29.0317 66.1718 29.2869 66.0129 29.4924C65.846 29.6916 65.6172 29.8292 65.3629 29.8832V29.8904C65.5304 29.9804 65.6978 30.2217 65.8617 30.6106L66.3533 31.8026H65.8905L65.4079 30.6304C65.3478 30.4382 65.2386 30.2651 65.091 30.1281C64.9073 30.0467 64.706 30.0132 64.5058 30.0308H64.0575V31.8116L63.6217 31.8044ZM64.0701 29.6671H64.5166C64.8564 29.6918 65.196 29.6173 65.4944 29.4528C65.598 29.3822 65.6815 29.2858 65.7364 29.173C65.7914 29.0603 65.8159 28.9352 65.8077 28.81C65.8077 28.286 65.4169 28.0285 64.6355 28.0285C64.4482 28.0264 64.2611 28.0433 64.0773 28.079L64.0701 29.6671Z" fill="black"/>
<path d="M70.2857 31.2876C69.8931 31.6563 69.3747 31.8615 68.8362 31.8615C68.2976 31.8615 67.7793 31.6563 67.3867 31.2876C67.0331 30.858 66.8398 30.3189 66.8398 29.7625C66.8398 29.2061 67.0331 28.667 67.3867 28.2374C67.7797 27.8695 68.2979 27.6648 68.8362 27.6648C69.3745 27.6648 69.8927 27.8695 70.2857 28.2374C70.6376 28.6677 70.8299 29.2066 70.8299 29.7625C70.8299 30.3184 70.6376 30.8573 70.2857 31.2876ZM68.8452 31.4821C69.0541 31.491 69.2624 31.4538 69.4553 31.3732C69.6482 31.2926 69.821 31.1706 69.9616 31.0157C70.2376 30.6535 70.387 30.2107 70.387 29.7553C70.387 29.2999 70.2376 28.8571 69.9616 28.4949C69.6676 28.1982 69.2678 28.0304 68.8501 28.0284C68.4324 28.0264 68.0311 28.1903 67.7342 28.4841L67.7234 28.4949C67.4474 28.8571 67.2979 29.2999 67.2979 29.7553C67.2979 30.2107 67.4474 30.6535 67.7234 31.0157C67.8646 31.1715 68.0382 31.2944 68.232 31.3759C68.4258 31.4574 68.6351 31.4955 68.8452 31.4875V31.4821Z" fill="black"/>
<path d="M71.3892 27.7188H74.3782V28.1005H73.1178V31.8134H72.6694V28.1005H71.3892V27.7188Z" fill="black"/>
<path d="M76.6666 27.7188H79.6503V28.1005H78.3898V31.8134H77.9415V28.1005H76.6702L76.6666 27.7188Z" fill="black"/>
<path d="M80.6299 31.8044V27.7188H81.1161V31.8044H80.6299Z" fill="black"/>
<path d="M82.182 27.7188H84.9046V28.0897L82.706 31.4119V31.4209H84.9046V31.7954H82.182V31.4209L84.3788 28.0987V28.0897H82.182V27.7188Z" fill="black"/>
<path d="M85.9712 31.8044V27.7188H86.4574V31.8044H85.9712Z" fill="black"/>
<path d="M87.5776 31.8044V27.7188H88.0314L89.4845 30.1839H89.5043L90.9448 27.7188H91.413V31.8044H90.9664V28.4697L89.6898 30.5854H89.2756L88.0152 28.4643H88.0044V31.799L87.5776 31.8044Z" fill="black"/>
<path d="M92.5398 31.8044V27.7188H93.026V31.8044H92.5398Z" fill="black"/>
<path d="M21.6058 9.64772V31.2552C21.6049 31.4143 21.5411 31.5665 21.4285 31.6788C21.3159 31.7911 21.1635 31.8544 21.0044 31.8548H16.9674C17.1264 31.8548 17.2789 31.7917 17.3914 31.6792C17.5038 31.5668 17.567 31.4143 17.567 31.2552V11.7526L20.9648 9.3182C21.0254 9.27483 21.0967 9.249 21.171 9.24354C21.2453 9.23809 21.3197 9.25322 21.3859 9.28727C21.4522 9.32133 21.5077 9.37299 21.5465 9.43658C21.5853 9.50017 21.6058 9.57323 21.6058 9.64772Z" fill="#26D3E1"/>
<path d="M17.567 11.7527V31.2625C17.567 31.3412 17.5515 31.4192 17.5213 31.4919C17.4912 31.5647 17.447 31.6308 17.3914 31.6864C17.3357 31.7421 17.2696 31.7863 17.1968 31.8164C17.1241 31.8466 17.0461 31.8621 16.9674 31.8621H14.8534C14.9322 31.8621 15.0101 31.8466 15.0829 31.8164C15.1556 31.7863 15.2217 31.7421 15.2774 31.6864C15.3331 31.6308 15.3773 31.5647 15.4074 31.4919C15.4375 31.4192 15.453 31.3412 15.453 31.2625V24.6578C15.453 24.5622 15.4303 24.4679 15.3868 24.3828C15.3433 24.2977 15.2802 24.224 15.2028 24.168L12.1543 21.9874V15.9427C12.1551 15.8471 12.1784 15.7529 12.2221 15.6679C12.2659 15.5828 12.329 15.5092 12.4064 15.453L17.567 11.7527Z" fill="#0E47A0"/>
<path d="M17.5667 0.405141V11.7491L12.4061 15.453C12.3287 15.5092 12.2656 15.5829 12.2218 15.6679C12.178 15.753 12.1548 15.8471 12.154 15.9427V21.9874L8.07735 19.056C7.97512 18.9831 7.85269 18.9439 7.72713 18.9439C7.60157 18.9439 7.47914 18.9831 7.37691 19.056L4.11597 21.3968V9.57213C4.11559 9.47644 4.1381 9.38206 4.18165 9.29685C4.22519 9.21165 4.28849 9.1381 4.36626 9.08236L16.9382 0.0756259C16.9814 0.0446848 17.0302 0.0225592 17.0819 0.0105176C17.1335 -0.00152404 17.1871 -0.00324493 17.2395 0.00545358C17.2918 0.0141521 17.342 0.0330989 17.387 0.061208C17.432 0.089317 17.471 0.126035 17.5018 0.169259C17.5477 0.239129 17.5703 0.321657 17.5667 0.405141Z" fill="#24A9E1"/>
<path d="M15.453 24.6577V31.2624C15.453 31.3412 15.4375 31.4192 15.4074 31.4919C15.3773 31.5647 15.3331 31.6308 15.2774 31.6864C15.2217 31.7421 15.1556 31.7863 15.0829 31.8164C15.0101 31.8465 14.9322 31.8621 14.8534 31.8621H12.7557C12.5967 31.8616 12.4442 31.7983 12.3316 31.686C12.219 31.5737 12.1552 31.4215 12.1543 31.2624V21.9874L15.2028 24.1716C15.2801 24.2269 15.3432 24.2998 15.3867 24.3844C15.4303 24.4689 15.453 24.5626 15.453 24.6577Z" fill="#092A5B"/>
<path d="M12.7554 31.871H4.71558C4.63683 31.871 4.55886 31.8555 4.48612 31.8254C4.41337 31.7952 4.34727 31.7511 4.29159 31.6954C4.23591 31.6397 4.19174 31.5736 4.16161 31.5009C4.13148 31.4281 4.11597 31.3501 4.11597 31.2714V21.4022L7.3805 19.0614C7.48273 18.9885 7.60517 18.9493 7.73073 18.9493C7.85629 18.9493 7.97872 18.9885 8.08095 19.0614L12.1594 21.9928V31.2696C12.1594 31.4282 12.222 31.5803 12.3336 31.693C12.4452 31.8056 12.5968 31.8696 12.7554 31.871Z" fill="#0E74BC"/>
<path d="M4.71584 31.871H0.601411C0.442219 31.871 0.289519 31.8079 0.176785 31.6955C0.0640503 31.5831 0.000476623 31.4306 0 31.2714V24.6577C5.38667e-05 24.5621 0.0227649 24.4679 0.0662706 24.3828C0.109776 24.2976 0.172841 24.224 0.25029 24.168L4.11623 21.4022V31.2642C4.11528 31.3436 4.13008 31.4223 4.15979 31.4959C4.1895 31.5695 4.23351 31.6364 4.28929 31.6929C4.34506 31.7493 4.41148 31.7941 4.4847 31.8247C4.55793 31.8553 4.63649 31.871 4.71584 31.871Z" fill="#26D3E1"/>
</svg>
