<?xml version="1.0" encoding="utf-8"?>
<!-- Generator: Adobe Illustrator 24.0.1, SVG Export Plug-In . SVG Version: 6.00 Build 0)  -->
<svg version="1.1" id="Layer_1" xmlns="http://www.w3.org/2000/svg" xmlns:xlink="http://www.w3.org/1999/xlink" x="0px" y="0px"
	 viewBox="0 0 1170 284" style="enable-background:new 0 0 1170 284;" xml:space="preserve">
<style type="text/css">
	.st0{fill:#0E6F90;}
	.st1{fill:#1E3242;}
	.st2{fill:#F4002F;}
</style>
<g>
	<g>
		<path class="st0" d="M114.94,243.34c14.95,14.95,32.92,25.77,52.54,31.9c-11.7,3.34-23.96,5.03-36.48,4.94
			c-33.89-0.23-66.49-13.91-90.41-37.92C16.34,217.93,3,185.63,3,151.28V3.82h0c40.84,0,73.94,33.1,73.94,73.94v73.52
			c0,2.1,0.12,4.18,0.35,6.23C78.6,189.94,91.85,220.24,114.94,243.34z"/>
		<path class="st0" d="M260.8,3.82v147.46c0,2.82-0.09,5.64-0.27,8.43c-3.68,26.76-26.69,47.43-54.44,47.43
			c-14.53,0-27.75-5.66-37.59-14.9c11.26-10.07,18.36-24.71,18.36-40.97V77.76C186.86,36.92,219.96,3.82,260.8,3.82L260.8,3.82z"/>
	</g>
	<path class="st1" d="M365.06,167.27c0,18.04,2.74,24.9,18.04,24.9c10.73,0,33.8-5.94,48.19-13.7V48.5h35.63v159.88H431.3v-14.62
		c-18.27,7.99-47.28,17.81-68.29,17.81c-22.61,0-33.57-8.91-33.57-39.06V48.5h35.63V167.27z"/>
	<path class="st1" d="M499.8,48.5h35.63v144.58h67.61v15.3H499.8V48.5z"/>
	<path class="st1" d="M593.21,48.5h120.59v15.3h-42.25v144.58h-35.63V63.81h-42.71V48.5z"/>
	<path class="st1" d="M738.24,48.5h35.63v159.88h-35.63V48.5z"/>
	<path class="st1" d="M815.05,208.38v-148L804.31,48.5h52.99l47.05,56.19l43.85-42.48V48.5h35.63v159.88H948.2V84.36l-61.9,60.3
		l-55.5-68.52v132.24H815.05z"/>
	<path class="st1" d="M1003.7,208.38l63.27-139.78l-9.82-20.1h40.88L1167,208.38h-39.97l-10.73-25.12h-84.96l-11.19,25.12H1003.7z
		 M1038.18,167.96h71.72l-34.49-81.99L1038.18,167.96z"/>
	<polygon class="st2" points="768.5,29.66 746.08,29.66 769.89,3.82 805.31,3.82 	"/>
</g>
</svg>
