<svg width="22" height="32" viewBox="0 0 22 32" fill="none" xmlns="http://www.w3.org/2000/svg">
<path d="M21.6058 9.64772V31.2552C21.6049 31.4143 21.5411 31.5665 21.4285 31.6788C21.3159 31.7911 21.1635 31.8544 21.0044 31.8548H16.9674C17.1264 31.8548 17.2789 31.7917 17.3914 31.6792C17.5038 31.5668 17.567 31.4143 17.567 31.2552V11.7526L20.9648 9.3182C21.0254 9.27483 21.0967 9.249 21.171 9.24354C21.2453 9.23809 21.3197 9.25322 21.3859 9.28727C21.4522 9.32133 21.5077 9.37299 21.5465 9.43658C21.5853 9.50017 21.6058 9.57323 21.6058 9.64772Z" fill="#26D3E1"/>
<path d="M17.567 11.7527V31.2625C17.567 31.3412 17.5515 31.4192 17.5213 31.4919C17.4912 31.5647 17.447 31.6308 17.3914 31.6864C17.3357 31.7421 17.2696 31.7863 17.1968 31.8164C17.1241 31.8466 17.0461 31.8621 16.9674 31.8621H14.8534C14.9322 31.8621 15.0101 31.8466 15.0829 31.8164C15.1556 31.7863 15.2217 31.7421 15.2774 31.6864C15.3331 31.6308 15.3773 31.5647 15.4074 31.4919C15.4375 31.4192 15.453 31.3412 15.453 31.2625V24.6578C15.453 24.5622 15.4303 24.4679 15.3868 24.3828C15.3433 24.2977 15.2802 24.224 15.2028 24.168L12.1543 21.9874V15.9427C12.1551 15.8471 12.1784 15.7529 12.2221 15.6679C12.2659 15.5828 12.329 15.5092 12.4064 15.453L17.567 11.7527Z" fill="#0E47A0"/>
<path d="M17.5667 0.405141V11.7491L12.4061 15.453C12.3287 15.5092 12.2656 15.5829 12.2218 15.6679C12.178 15.753 12.1548 15.8471 12.154 15.9427V21.9874L8.07735 19.056C7.97512 18.9831 7.85269 18.9439 7.72713 18.9439C7.60157 18.9439 7.47914 18.9831 7.37691 19.056L4.11597 21.3968V9.57213C4.11559 9.47644 4.1381 9.38206 4.18165 9.29685C4.22519 9.21165 4.28849 9.1381 4.36626 9.08236L16.9382 0.0756259C16.9814 0.0446848 17.0302 0.0225592 17.0819 0.0105176C17.1335 -0.00152404 17.1871 -0.00324493 17.2395 0.00545358C17.2918 0.0141521 17.342 0.0330989 17.387 0.061208C17.432 0.089317 17.471 0.126035 17.5018 0.169259C17.5477 0.239129 17.5703 0.321657 17.5667 0.405141Z" fill="#24A9E1"/>
<path d="M15.453 24.6577V31.2624C15.453 31.3412 15.4375 31.4192 15.4074 31.4919C15.3773 31.5647 15.3331 31.6308 15.2774 31.6864C15.2217 31.7421 15.1556 31.7863 15.0829 31.8164C15.0101 31.8465 14.9322 31.8621 14.8534 31.8621H12.7557C12.5967 31.8616 12.4442 31.7983 12.3316 31.686C12.219 31.5737 12.1552 31.4215 12.1543 31.2624V21.9874L15.2028 24.1716C15.2801 24.2269 15.3432 24.2998 15.3867 24.3844C15.4303 24.4689 15.453 24.5626 15.453 24.6577Z" fill="#092A5B"/>
<path d="M12.7554 31.871H4.71558C4.63683 31.871 4.55886 31.8555 4.48612 31.8254C4.41337 31.7952 4.34727 31.7511 4.29159 31.6954C4.23591 31.6397 4.19174 31.5736 4.16161 31.5009C4.13148 31.4281 4.11597 31.3501 4.11597 31.2714V21.4022L7.3805 19.0614C7.48273 18.9885 7.60517 18.9493 7.73073 18.9493C7.85629 18.9493 7.97872 18.9885 8.08095 19.0614L12.1594 21.9928V31.2696C12.1594 31.4282 12.222 31.5803 12.3336 31.693C12.4452 31.8056 12.5968 31.8696 12.7554 31.871Z" fill="#0E74BC"/>
<path d="M4.71584 31.871H0.601411C0.442219 31.871 0.289519 31.8079 0.176785 31.6955C0.0640503 31.5831 0.000476623 31.4306 0 31.2714V24.6577C5.38667e-05 24.5621 0.0227649 24.4679 0.0662706 24.3828C0.109776 24.2976 0.172841 24.224 0.25029 24.168L4.11623 21.4022V31.2642C4.11528 31.3436 4.13008 31.4223 4.15979 31.4959C4.1895 31.5695 4.23351 31.6364 4.28929 31.6929C4.34506 31.7493 4.41148 31.7941 4.4847 31.8247C4.55793 31.8553 4.63649 31.871 4.71584 31.871Z" fill="#26D3E1"/>
</svg>
