<svg width="521" height="340" viewBox="0 0 521 340" fill="none" xmlns="http://www.w3.org/2000/svg">
<g clip-path="url(#clip0)">
<path d="M277.901 251.402L276.495 252.497L273.473 255.521L273.108 255.834L272.743 255.991L272.431 255.939L272.066 255.991L271.858 256.095L271.649 256.252L269.357 258.755L269.096 259.172L268.888 259.485L268.836 259.693V259.902L268.888 260.11L268.94 260.267L269.096 260.632L269.305 260.945L270.243 262.144L270.347 262.301L270.451 262.457V262.718L270.399 263.031L270.243 263.187L270.086 263.291L265.033 265.117L263.418 265.69L259.25 267.411L257.843 268.35L255.082 271.426L254.613 271.896L253.675 270.696L252.945 270.279L252.06 270.383L249.715 271.531L248.934 271.739L248.048 271.531L247.11 271.061L242.265 267.567L238.045 264.543L234.658 262.144L232.835 260.215L229.605 255.678L227.677 253.801L223.457 250.828L213.454 243.684L208.556 240.138L204.44 237.166L200.898 234.663L199.126 232.89L198.814 232.681L196.625 229.917L196.313 228.874L195.792 226.632L195.688 225.745L195.792 224.911L196.052 224.181L196.209 223.451L196.104 222.617L195.167 220.583L195.062 219.748V218.705L194.906 217.923L194.698 217.193L193.916 215.629L193.708 214.899L193.604 213.23L193.343 212.865L190.842 211.405L189.384 210.988L188.706 210.466L188.602 210.206L194.906 202.331L196.469 198.942L196.104 197.586L195.115 196.074L190.165 190.494L196.99 187.209V186.635L188.394 174.641L199.126 170.574L201.679 170.626L202.617 172.868L203.398 174.172L208.452 180.221L212.568 187.469L213.297 187.886L215.954 188.46L219.914 190.025L224.603 192.684L233.721 198.316L234.398 199.515L235.492 200.61L235.44 201.393L239.087 200.141L241.223 196.908L243.046 193.153L243.567 192.371L244.141 191.85L244.766 191.641L245.339 191.798L245.912 192.319L246.537 193.258L246.693 194.613L246.746 197.221L247.162 198.107L248.465 198.577L256.645 199.567L257.322 198.89L258.26 195.344L258.833 195.031L259.875 194.613L263.886 194.457L265.189 194.196L266.179 193.779L267.117 192.371L267.481 192.423L267.742 193.362L268.419 197.429L268.68 198.472L269.096 199.672L270.138 200.506L271.18 201.132L274.202 201.862L283.372 202.488L284.831 202.071L284.101 204.574L283.945 205.564L283.893 206.607V207.598L283.945 208.433L284.101 208.902L284.049 209.371L283.632 209.319L282.069 209.006L281.757 208.954L281.496 209.058L281.236 209.267L280.923 209.788L280.871 210.258L280.037 212.813L279.36 213.595L278.839 214.117L278.162 216.307L277.797 216.985L274.254 216.932L273.577 216.724L272.9 216.255L272.327 215.733L271.701 215.577H271.024L269.982 215.733L269.461 216.046L269.201 216.359L269.096 216.724L269.044 217.141V217.454L269.201 218.236L269.982 219.018L269.461 220.479L269.201 220.739L269.044 220.791V220.896L269.096 221.052L269.409 221.626L270.295 222.512L270.764 223.138L270.92 223.399L270.868 223.503L269.982 223.607L269.774 223.659L269.565 223.816L269.357 223.972L269.044 224.025L268.628 224.39L267.169 227.31L266.752 227.883L266.231 228.405L265.658 228.822L263.834 229.656L263.574 230.178L263.365 230.439L263.261 230.595L262.271 231.847L261.75 232.942L261.334 233.932L261.802 234.923L263.991 238L264.876 238.574L266.283 239.356L266.335 239.564L266.491 239.929L266.596 240.242L267.012 240.503H267.586L268.888 239.929L269.357 239.982L269.617 240.451L273.264 242.172L273.785 243.058L274.046 243.945V244.623L274.15 245.457L274.411 246.291L274.984 246.604L275.713 246.865L276.182 247.126L276.703 247.699L277.172 248.325L277.328 248.586L277.485 249.003L277.797 250.046L277.849 250.307L277.901 251.402Z" fill="#6382A8" stroke="white" stroke-width="1.56373" stroke-linecap="round" stroke-linejoin="round"/>
<path d="M190.165 190.494L195.115 196.074L196.104 197.586L196.469 198.942L194.906 202.331L188.602 210.206L188.55 210.153L188.289 209.215L188.133 208.85L186.987 207.337L186.57 206.503L185.945 204.052L185.58 203.479L184.59 202.383L184.278 201.862L184.017 201.028L183.705 199.202L182.715 195.813L182.402 195.031L182.611 194.718L182.454 194.144L182.402 191.328L182.298 190.494L182.037 189.816L179.797 186.061L179.224 185.436L172.451 180.429L169.846 179.282L166.876 178.5L165.782 178.344L165.105 178.709L164.688 179.543L164.376 180.951L163.646 181.368L163.073 182.672L162.187 183.61L161.145 184.132L159.999 184.184L158.801 183.663L155.675 181.42H155.102L153.33 181.733L153.174 181.368L153.07 181.003L152.966 180.899L152.392 181.89L152.184 182.098L151.976 182.307L150.517 180.794L148.433 180.273L142.337 180.638L138.638 181.89H136.815L135.773 181.629L134.939 181.003L133.272 179.334L131.448 177.979L128.531 176.466L125.196 174.745L124.363 173.911L124.154 172.972L124.519 169.687L124.779 169.009L125.144 168.436L125.665 167.966L126.916 167.341L127.332 166.871L127.072 166.089L125.04 163.221L124.154 161.448L123.842 159.988L124.623 158.893L125.457 158.319L126.395 158.215L127.541 158.58L128.583 159.258L129.208 159.518L129.677 159.466L129.989 158.945L129.937 158.371L129.677 157.798L129.312 157.328L128.895 156.963L127.437 156.077L126.968 155.607L126.655 155.086L127.02 154.721L127.332 153.782L127.28 153.365L126.968 152.635L126.863 152.479L126.811 152.27L126.916 152.114L127.124 151.957L127.593 151.853L128.426 151.801L129.052 151.54L130.615 150.445L131.188 149.923L131.344 149.819L131.865 149.767L132.49 150.236L132.803 150.445L134.314 150.81L135.825 150.966L136.241 151.331L136.346 152.166V153.991L136.606 154.669L137.388 155.92L137.752 156.963L138.586 158.475L139.003 159.049L139.524 159.414L140.201 159.571H141.608L142.129 159.883L142.441 160.561L142.962 162.126L143.744 163.534L144.734 164.629L151.871 171.147L152.653 171.304L153.07 171.46L153.382 171.721L154.476 172.92L155.414 173.807L156.092 174.067L157.863 174.38L158.436 174.745L160.051 176.518L160.416 177.092L160.781 178.291L161.25 178.5L161.458 178.656L162.135 178.917L162.917 178.865L163.438 178.448L164.636 176.101L165.157 175.528L165.626 175.163L166.147 174.902L166.772 174.745H168.387L174.17 176.153L175.629 176.779L177.036 177.614L178.807 178.969L183.965 184.706L187.56 190.494L187.716 190.598L188.133 190.859L188.55 191.015L190.165 190.494Z" fill="#6382A8" stroke="white" stroke-width="1.56373" stroke-linecap="round" stroke-linejoin="round"/>
<path d="M183.756 88.8589L187.038 94.4386L188.549 95.8466L196.729 98.0889L197.198 98.3497V98.7669L196.989 99.2883L188.758 114.88L180.995 129.847L179.328 133.758L178.65 142.258V142.727L178.754 143.144L182.193 149.506L182.818 150.81L182.662 151.018L182.297 151.383L175.785 155.086L175.16 155.659V156.181L175.42 156.755L188.393 174.641L196.989 186.635V187.209L190.164 190.494L188.549 191.015L188.132 190.859L187.716 190.598L187.559 190.494L183.964 184.706L178.807 178.969L177.035 177.613L175.628 176.779L174.17 176.153L168.387 174.745H166.771L166.146 174.902L165.625 175.163L165.156 175.528L164.635 176.101L163.437 178.448L162.916 178.865L162.135 178.917L161.457 178.656L161.249 178.5L160.78 178.291L160.415 177.092L160.051 176.518L158.435 174.745L157.862 174.38L156.091 174.067L155.414 173.807L154.476 172.92L153.382 171.721L153.069 171.46L152.652 171.304L151.871 171.147L144.733 164.629L143.743 163.534L142.962 162.126L142.441 160.561L142.128 159.883L141.607 159.571H140.2L139.523 159.414L139.002 159.049L138.585 158.475L137.752 156.963L137.387 155.92L136.606 154.669L136.345 153.991V152.166L136.241 151.331L135.824 150.966L134.313 150.81L132.802 150.445L132.49 150.236L131.864 149.767L131.343 149.819L131.187 149.923L130.614 150.445L129.051 151.54L128.426 151.801L127.592 151.853L127.123 151.957L126.915 152.113L126.811 152.27L126.863 152.479L126.967 152.635L127.28 153.365L127.332 153.782L127.019 154.721L126.654 155.086L125.925 154.043L125.039 153.261L121.861 152.061L120.298 152.113L119.881 151.905L119.517 151.331L119.569 150.81L119.933 150.393L120.454 150.236H120.507L122.278 149.558L122.174 147.942L121.601 145.908L121.861 144.031L122.382 143.666L123.007 143.405L123.476 143.04L123.58 142.362L123.216 141.84L122.538 141.423L121.184 140.902L120.09 139.911L119.256 138.607L118.318 137.564L116.964 137.408L115.609 137.564L112.952 137.304L106.544 138.294L104.981 138.242L104.251 137.982L103.053 136.678L102.324 136.417L100.761 136.261L99.9271 135.739L99.5103 135.009L99.1456 131.88L98.8851 131.098L98.4162 130.42L96.4885 128.386L95.7591 127.917L95.0297 128.021L94.144 128.439L93.2583 128.699L92.3726 128.752L91.018 128.491L88.8819 127.552L86.85 125.623L80.3375 117.957L79.6081 117.488L79.035 118.426L78.6182 121.92L77.993 123.12L76.7426 123.537L75.1796 123.432L73.6166 123.067L70.3864 121.712H69.6049L69.0839 121.868L67.4688 122.859L66.3226 123.38L65.7495 123.798L65.489 124.371L65.6453 125.206L66.2184 125.675L70.0217 127.5L71.0637 128.334L72.0015 129.742L72.8351 131.672L75.0754 135.322L76.2737 136.782L76.6384 137.095L76.7947 137.46L76.6384 137.825L76.2737 138.034L74.346 138.347L73.825 138.19L73.5124 137.669V137.043L73.6687 136.313L73.7729 135.583L73.4603 134.123L72.6788 133.08L71.6368 132.298L68.6671 130.89L67.9898 130.733L67.4167 130.837L66.3226 131.307L65.8537 131.359L65.3327 131.098L64.6554 130.055L64.2386 129.638L63.6655 129.429L62.9882 129.377L62.3109 129.534L61.7378 129.794L61.4252 130.16L61.1647 130.681L60.3832 131.567L59.5496 131.932L59.0286 132.35L59.237 133.445L59.8622 134.853L59.9143 135.479L59.6538 136.469L58.4034 139.285L57.9866 139.755L56.8404 140.172L56.5799 140.693L56.7883 141.319L57.2051 141.788L57.2572 142.153L56.632 142.623L56.0068 142.779L53.9749 142.675L53.4018 142.831L51.6825 143.666L51.0052 143.77L50.7968 142.049L50.5363 141.006L50.1195 140.172L49.5464 139.494L48.817 138.92L47.2019 138.034L45.8994 137.877L45.5868 137.773L45.2742 137.512L44.8574 137.199L44.2322 136.209L43.8675 135.896L43.3465 135.791L42.565 135.844L40.8457 136.417L39.5432 137.147L38.7617 137.877L38.4491 138.19L37.5113 140.172L33.708 152.113L33.6038 152.739V152.948L30.8946 154.252L30.0089 155.451V157.015L30.6862 160.196L30.582 161.761L30.3736 163.064L30.3215 164.316L30.8946 165.776L31.5719 166.871L31.8845 167.966L31.9887 169.113V170.521L32.145 171.669L32.5097 172.764L33.1349 173.807L33.7601 174.537L34.229 174.85L34.6458 175.058L36.2088 175.423L36.4172 175.632L36.3651 175.893L36.0004 176.31L35.3752 176.779L33.9685 177.457L33.3433 178.187L32.4055 179.856L31.8324 180.221L28.1333 179.439L25.2678 178.865L18.4948 178.448L11.1487 178.083L5.52187 177.77L0.624464 177.509L0.572364 158.893V149.558V140.172V130.785V121.347V111.856V102.313V92.7699V83.1748L0.520264 73.5797V63.9325V54.181V44.4816V34.6779V24.8221L0.624464 24.7699L3.43786 23.8313L6.25127 22.9448L9.11677 22.0061L14.7957 20.181L17.6091 19.2423L20.4746 18.3558L23.288 17.4172L28.9669 15.592L31.8324 14.7055L34.6458 13.7669L37.5113 12.8804L40.3247 11.9417L46.0036 10.1165L49.8069 8.91716L53.5581 7.76992L57.3614 6.62268L61.1647 5.42329L62.884 4.90182L64.6554 4.38035L68.1461 3.3374L69.9696 2.81593L73.6166 1.77299L75.4401 1.25152L77.8888 0.521454L78.6182 0.573601L79.4518 0.938632L79.7123 1.14722L79.6602 1.19937L79.1913 2.4509L79.0871 3.23311L78.9308 3.70244L78.514 4.58894L78.4098 5.11041V6.3098L78.3056 6.62268L78.2014 6.72697L77.9409 6.88342L77.8367 6.98771L77.7325 7.14415L77.472 7.92636L76.3779 9.43863L76.2216 9.69937L76.1695 9.80366L75.8569 10.1165L74.4502 12.0981L74.2939 12.411L74.2418 12.7239L74.1376 13.819L73.7729 14.9662L73.3561 15.8527L73.1998 16.5307L73.0435 17.8865L72.8872 18.5644L72.6267 19.2423L72.3141 19.8681L72.1057 20.1288L71.6889 20.546L71.4805 20.8067L71.3763 21.1196L71.3242 21.4325L71.22 22.0583L71.1158 22.684L69.0839 27.638L68.8234 29.5675L68.7192 30.819L68.7713 32.0705L69.3965 33.8957L70.0217 35.5122L70.8553 36.8681L71.3763 38.7454L71.3242 39.7362L71.1158 40.4141L70.8553 41.0399L70.2301 41.457L69.5007 42.5L69.3444 43.23L69.136 43.6472L68.9797 43.9601L68.9276 44.3251L69.136 45.8896L69.657 47.6104L70.4385 48.3405L71.0116 48.9662L72.2099 49.1748L73.6687 49.0705L75.1796 48.2362L76.7426 46.9325L78.0972 45.681L78.9829 44.5337L79.4518 43.8037L79.8165 43.1257L80.4417 42.3957L81.1711 41.3527L81.8484 40.2055L82.3694 39.4233L82.8904 38.6932L83.0467 38.1718L82.6299 37.3895L82.0047 37.1288L81.2753 36.8159L81.6921 37.8067L81.1711 37.9632L80.4417 37.7546L80.1291 37.2331L80.4417 35.6165L80.8064 34.8865L81.0148 34.365L81.64 34.1564L82.0568 33.9478L82.682 34.1564L82.8383 34.9908L82.9946 35.5122L83.4114 35.9294L84.0366 36.0859L85.0265 35.8251L85.5475 35.1994L85.3912 34.365L84.7139 33.7392L84.3492 33.1135L84.6618 32.0184L84.7139 30.6626L84.3492 29.2546L84.0887 28.003V27.1165L84.7139 26.9601L85.5475 26.8037L85.9643 25.865L86.1206 24.8221L86.3811 24.0399L86.5895 22.7883L85.9122 22.3711L85.2349 22.8926L84.7139 23.9356L83.5677 24.6135L82.8383 24.7178L82.0568 25.3435L81.1711 24.7178L81.119 23.727L81.4837 22.684L82.0047 21.4846L82.4736 20.4417L83.4114 19.3988L83.8803 18.5123L84.7139 17.6779L85.5996 16.7914L86.2769 16.4785L84.8702 15.4356L84.0887 14.4448L83.4114 11.7853L83.1509 10.0644L83.0467 8.91716L83.1509 7.61348L83.5677 6.10121L84.0366 4.84967L84.2971 4.22391L87.2668 6.25765L91.1222 8.86501L93.7793 10.638L100.917 15.5399L105.554 18.6165L105.45 18.8251L104.72 19.8159L104.303 20.6503L103.73 22.5797L103.261 23.8313L102.376 25.3435L101.698 26.1779L101.386 27.6902L101.021 29.1503L100.552 30.2454L100.031 31.184L98.9893 32.592L98.5204 33.635L98.1557 34.6779L97.9473 35.7208L98.312 37.8589L99.0935 39.684L100.031 40.9356L102.532 43.8037L106.283 47.5583L108.263 49.4877L109.826 50.6349L111.389 51.8865L111.754 52.2515L111.858 52.8251L111.702 54.0245L111.076 54.9632L109.67 55.9018L109.201 57.1534L108.68 58.4049L108.003 59.6564L108.471 60.8037L109.982 61.0644L111.337 60.9601L112.535 60.5951L113.317 59.865L114.411 59.7607L115.609 59.9693L116.755 59.5521L118.006 58.7178L119.725 57.5705L120.507 56.5276L120.663 56.0061L120.246 55.5368L119.673 55.4846L119.152 55.2761L118.839 54.9632L118.735 54.5981V54.1288L118.891 53.8159L119.1 53.2945L119.465 52.9816L119.725 52.6687H120.246L121.028 52.7208L121.861 52.8773L122.434 52.7208L122.903 52.2515L123.112 51.6779L123.528 50.2699L123.737 48.9141L123.58 47.5583L123.216 45.3159L122.695 43.5951L122.017 42.1871L121.809 40.8313L121.757 39.684L122.278 38.954L122.799 38.5368L123.372 37.8589L123.789 36.9202L124.049 35.7208V34.1564L124.101 32.1227V31.0797L124.675 31.4969L130.562 35.408L136.085 39.1626L141.19 42.5L145.567 45.4724L151.871 49.6442L153.746 50.8957L154.528 51.7822L155.049 52.9294L155.257 53.9202L155.466 56.1104L155.778 57.1012L157.55 59.9693L160.988 63.7761L162.656 65.5491L164.323 67.3742L166.459 69.8251L168.178 71.8067L171.669 75.8742L173.388 77.8558L175.107 79.8374L176.827 81.819L180.213 85.73L182.506 88.3374L183.704 88.8589H183.756Z" fill="#6382A8" stroke="white" stroke-width="1.56373" stroke-linecap="round" stroke-linejoin="round"/>
<path d="M326.98 184.288V184.445L323.28 185.957L323.02 186.583L322.655 187.052L323.124 192.684L323.176 192.893L323.28 193.049L323.437 193.414L323.697 193.727L323.906 193.831L324.322 194.092L327.032 194.822L327.188 194.979L327.292 195.135L327.396 195.291V195.604V195.969L327.292 196.699V197.377L327.344 197.586L327.605 198.264L328.282 199.463L327.448 201.601L322.812 210.623L322.238 210.049L321.874 209.58L321.77 209.423L321.717 209.267L321.665 209.11V208.902L321.874 208.276V207.911L321.822 207.755L321.77 207.598L320.728 206.399L319.842 205.617L319.529 205.46L319.269 205.408L318.956 205.512L316.768 207.025L316.091 207.337L315.465 207.442L314.997 207.337L314.423 207.129L313.902 206.816L313.277 206.347L312.808 206.138L312.392 206.086L311.975 206.19L311.61 206.503L311.245 206.868L310.985 207.337L310.724 207.859L310.36 208.954L310.255 209.58V210.206L310.516 210.936L310.724 211.248L310.881 211.561L310.829 211.874L310.62 212.344L310.412 212.552L309.787 212.813L309.63 213.074V213.387L309.995 214.325L310.099 215.733L309.891 216.62L309.474 217.506L309.422 217.767L309.474 218.028L309.63 218.236L310.047 218.653V219.018L309.891 219.279L309.109 220.374L308.849 220.896L308.692 221.417L308.432 222.304L307.65 224.181L307.598 224.442L307.65 224.702L307.807 224.755H308.015L308.588 224.65H308.849L309.109 224.702L309.37 224.807L309.526 225.067L309.63 225.276V225.589L309.474 225.954L309.161 226.267L307.234 228.092L306.869 228.301L300.356 229.656L299.054 229.396L297.751 228.561L297.126 228.77L296.553 228.457L295.98 228.04L294.73 227.571L294.261 227.049L293.479 225.954L293.167 225.902L293.062 225.85L292.489 225.745L289.728 224.494H289.259L289.051 224.598L288.894 224.755L288.738 225.172L288.634 225.433L288.582 225.589L288.634 226.11L288.53 226.893V227.101L288.478 227.31L288.373 227.414L288.321 227.623L287.54 228.77L287.488 229.031L287.592 229.187H287.8L288.009 229.239L288.165 229.344L288.321 229.5L288.373 229.709L288.321 229.917L288.217 230.23L287.748 231.273L287.644 231.534L287.123 233.567L286.915 234.037L286.654 234.193L286.289 234.35H285.404L284.57 234.245L283.684 233.828L282.642 233.255L282.434 233.202L282.226 233.307L282.069 233.567L282.017 233.828L281.913 234.506L281.653 234.715L281.392 234.923L279.569 235.393L278.11 235.601L277.797 235.653L277.641 235.758L277.485 235.914L277.432 236.123L277.641 236.592L278.579 237.635L279.152 238.156L279.412 238.417L279.673 238.782L280.558 242.12L280.611 242.433L280.558 243.006L280.506 243.371L280.402 243.684L279.516 245.718V245.926L279.881 247.126L281.496 250.359L280.923 250.724L277.901 251.402L277.849 250.307L277.797 250.046L277.485 249.003L277.328 248.586L277.172 248.325L276.703 247.699L276.182 247.126L275.713 246.865L274.984 246.604L274.411 246.291L274.15 245.457L274.046 244.623V243.945L273.785 243.058L273.264 242.172L269.617 240.451L269.357 239.982L268.888 239.929L267.586 240.503H267.012L266.596 240.242L266.491 239.929L266.335 239.564L266.283 239.356L264.876 238.574L263.991 238L261.802 234.923L261.334 233.933L261.75 232.942L262.271 231.847L263.261 230.595L263.365 230.439L263.574 230.178L263.834 229.656L265.658 228.822L266.231 228.405L266.752 227.883L267.169 227.31L268.628 224.39L269.044 224.025L269.357 223.972L269.565 223.816L269.774 223.66L269.982 223.607L270.868 223.503L270.92 223.399L270.764 223.138L270.295 222.512L269.409 221.626L269.096 221.052L269.044 220.896V220.791L269.201 220.739L269.461 220.479L269.982 219.018L269.201 218.236L269.044 217.454V217.141L269.096 216.724L269.201 216.359L269.461 216.046L269.982 215.733L271.024 215.577H271.701L272.327 215.733L272.9 216.255L273.577 216.724L274.254 216.933L277.797 216.985L278.162 216.307L278.839 214.117L279.36 213.595L280.037 212.813L280.871 210.258L280.923 209.788L281.236 209.267L281.496 209.058L281.757 208.954L282.069 209.006L283.632 209.319L284.049 209.371L284.101 208.902L283.945 208.433L283.893 207.598V206.607L283.945 205.564L284.101 204.574L284.831 202.071L283.372 202.488L274.202 201.862L271.18 201.132L270.138 200.506L269.096 199.672L268.68 198.472L268.419 197.429L267.742 193.362L267.481 192.423L267.117 192.371L266.179 193.779L265.189 194.196L263.886 194.457L259.875 194.614L258.833 195.031L258.26 195.344L257.322 198.89L256.645 199.567L248.465 198.577L247.162 198.107L246.746 197.221L246.693 194.614L246.537 193.258L245.912 192.319L245.339 191.798L244.766 191.641L244.141 191.85L243.567 192.371L243.046 193.153L241.223 196.908L239.087 200.141L235.44 201.393L235.492 200.61L234.398 199.515L233.721 198.316L224.603 192.684L219.914 190.025L215.954 188.46L213.297 187.887L212.568 187.469L208.452 180.221L203.398 174.172L202.617 172.868L201.679 170.626L199.126 170.574L188.394 174.641L175.421 156.755L175.16 156.181V155.66L175.785 155.086L182.298 151.383L182.663 151.018L182.819 150.81L182.194 149.506L178.755 143.144L178.651 142.727V142.258L179.328 133.758L180.995 129.847L188.758 114.88L196.99 99.2883L197.198 98.7669V98.3497L196.73 98.089L188.55 95.8466L187.039 94.4387L183.757 88.8589L186.257 88.3896L188.394 88.0246L192.249 87.2945L195.688 86.6687L197.407 86.3558L200.168 85.8865L202.929 85.4172L216.736 83.1749L219.497 82.7055L224.134 83.1749L228.719 83.592L233.356 84.0092L237.941 84.4264L242.161 84.7914L246.329 85.1565L250.549 85.5736L254.717 85.9387L256.384 86.0951L257.426 85.7822L260.5 84.1135L263.418 82.4969L266.439 80.7761L269.357 79.1595L269.93 78.9509L270.451 78.7423L271.441 78.8988L271.91 79.3681L272.431 79.7853L275.713 84.0614L278.943 88.3374L280.454 89.954L281.965 91.5184L285.091 93.5L288.217 95.4295L289.415 96.5246L291.968 101.844L293.636 105.233L295.876 109.926L297.856 113.942L298.377 113.994L302.753 111.647L307.077 109.248L306.452 119.521L305.775 129.742L305.619 131.933L305.358 132.663L304.629 132.923L304.472 133.497L304.316 141.475L304.212 149.402L304.316 149.871L304.577 150.08H308.224H311.506L314.84 150.132H318.487L318.696 150.08L318.956 150.132H319.165L319.321 150.236L319.842 155.399L320.363 160.509L321.301 165.515L322.291 170.521L323.593 176.518L324.896 182.411L325.573 183.245L326.25 184.08L326.98 184.288Z" fill="#6382A8" stroke="white" stroke-width="1.56373" stroke-linecap="round" stroke-linejoin="round"/>
<path d="M322.812 210.623L323.072 210.831L326.875 210.988L328.126 211.353L328.595 211.457L329.116 211.561L329.793 211.509L330.574 211.353L330.783 211.301L330.939 211.457L331.095 211.666L331.304 212.187L331.46 212.552L331.512 212.969L331.46 213.491L331.304 214.064L331.043 214.69L330.991 214.899L330.939 215.159V215.42L330.991 217.298L331.043 217.975L331.46 220.061L331.564 220.218L331.669 220.426L331.877 220.635L332.502 220.896L332.658 221.052L332.763 221.209V221.521L332.658 221.73V222.043L332.763 222.356L333.596 223.347L333.544 224.285L333.44 224.65L333.336 224.755L333.179 224.911L332.606 225.067L332.45 225.172L332.398 225.38L332.346 225.589L332.502 227.362L332.606 227.571L332.711 227.727L333.075 227.831H333.336L333.596 227.779L333.753 227.727L334.326 227.466L334.482 227.414H334.69H334.899L335.107 227.571L335.263 227.831L335.316 228.353L335.211 228.613V228.979L335.263 229.187L336.305 230.334L336.722 230.178H336.879L336.983 230.126L337.347 230.699L339.744 231.377L340.109 231.429L340.578 231.377L340.786 231.325H340.994L341.515 231.638L341.724 231.742L341.984 231.794L342.297 231.69L342.974 231.742L348.236 232.733L348.757 233.567L349.539 237.27L349.435 237.583L348.966 237.687H348.757L347.924 237.896L347.299 238.104L346.309 238.626L345.84 238.991L345.631 239.199L345.579 239.408L345.475 239.669V240.242V240.607L345.527 240.868L345.579 241.077L345.631 241.442V241.702V242.172L345.579 242.38L345.423 242.589L345.162 242.693L344.902 242.745H343.964L343.599 242.85L343.391 243.215L343.287 243.528L343.235 246.239L343.547 246.917L343.964 247.439L345.215 248.534L347.507 250.567L347.246 250.933L346.882 252.445L346.673 254.009L346.621 255.469L346.257 256.773L346.048 258.077L345.84 258.181L345.527 258.077L345.215 258.181L345.162 258.233L337.921 256.408L336.305 256.304V256.512L336.358 256.929V257.086V257.294L336.253 257.503L336.149 257.66L335.993 257.816L335.837 257.868L335.472 257.972L332.137 258.077L331.721 258.025L331.512 257.92L331.304 257.816L331.095 257.66L330.991 257.451L330.939 257.138L330.991 256.512L331.2 255.469L331.095 254.896L330.47 253.748L329.845 253.644L327.24 253.123L324.896 252.758H324.479L323.958 252.914L323.489 253.175L323.228 253.383L323.02 253.592L322.03 255.104L321.77 255.365L319.477 256.304H319.269L318.852 256.199L318.383 255.939L316.56 254.531L315.83 254.009L315.257 254.061L310.881 255.052L310.724 255.104L307.807 256.512L307.182 256.929L306.713 257.086H305.619L303.587 256.564L303.43 256.408L303.274 256.147L303.222 255.73L303.17 255.417V255.156L303.222 254.531V253.957L303.118 253.696L303.014 253.488L302.284 252.914L301.346 252.288L299.783 250.724L299.471 250.307L299.262 249.994L299.21 249.785L298.898 248.482L298.846 248.325L298.741 248.169L298.585 248.012L298.429 247.908L298.22 247.856L297.96 247.804H297.022L296.657 247.856L296.397 248.012L296.345 248.221V248.429V249.003V249.212L296.293 249.42L296.188 249.577L296.084 249.733L295.407 250.202L294.782 250.567L294.417 250.672L281.496 250.359L279.881 247.126L279.516 245.926V245.718L280.402 243.684L280.506 243.371L280.558 243.006L280.611 242.432L280.558 242.12L279.673 238.782L279.412 238.417L279.152 238.156L278.579 237.635L277.641 236.592L277.432 236.123L277.485 235.914L277.641 235.758L277.797 235.653L278.11 235.601L279.569 235.393L281.392 234.923L281.653 234.715L281.913 234.506L282.017 233.828L282.069 233.567L282.226 233.307L282.434 233.202L282.642 233.255L283.684 233.828L284.57 234.245L285.404 234.35H286.289L286.654 234.193L286.915 234.037L287.123 233.567L287.644 231.534L287.748 231.273L288.217 230.23L288.321 229.917L288.373 229.709L288.321 229.5L288.165 229.344L288.009 229.239L287.8 229.187H287.592L287.488 229.031L287.54 228.77L288.321 227.623L288.373 227.414L288.478 227.31L288.53 227.101V226.893L288.634 226.11L288.582 225.589L288.634 225.432L288.738 225.172L288.894 224.755L289.051 224.598L289.259 224.494H289.728L292.489 225.745L293.062 225.85L293.167 225.902L293.479 225.954L294.261 227.049L294.73 227.571L295.98 228.04L296.553 228.457L297.126 228.77L297.751 228.561L299.054 229.396L300.356 229.656L306.869 228.301L307.234 228.092L309.161 226.267L309.474 225.954L309.63 225.589V225.276L309.526 225.067L309.37 224.807L309.109 224.702L308.849 224.65H308.588L308.015 224.755H307.807L307.65 224.702L307.598 224.442L307.65 224.181L308.432 222.304L308.692 221.417L308.849 220.896L309.109 220.374L309.891 219.279L310.047 219.018V218.653L309.63 218.236L309.474 218.028L309.422 217.767L309.474 217.506L309.891 216.62L310.099 215.733L309.995 214.325L309.63 213.386V213.074L309.787 212.813L310.412 212.552L310.62 212.344L310.829 211.874L310.881 211.561L310.724 211.248L310.516 210.936L310.255 210.206V209.58L310.36 208.954L310.724 207.859L310.985 207.337L311.245 206.868L311.61 206.503L311.975 206.19L312.392 206.086L312.808 206.138L313.277 206.347L313.902 206.816L314.423 207.129L314.997 207.337L315.465 207.442L316.091 207.337L316.768 207.025L318.956 205.512L319.269 205.408L319.529 205.46L319.842 205.617L320.728 206.399L321.77 207.598L321.822 207.755L321.874 207.911V208.276L321.665 208.902V209.11L321.717 209.267L321.77 209.423L321.874 209.58L322.238 210.049L322.812 210.623Z" fill="#6382A8" stroke="white" stroke-width="1.56373" stroke-linecap="round" stroke-linejoin="round"/>
<path d="M345.163 258.233L344.954 258.442L344.798 258.598L344.746 258.859L344.694 259.432L344.902 260.997L345.736 261.779L349.435 263.083L351.883 263.187L353.082 263.656L353.186 263.813L353.446 264.282L353.603 264.439L353.811 264.491L354.332 264.386L354.541 264.439L354.801 264.908L354.853 265.429L354.488 268.454L354.645 269.445H354.697L354.228 269.81L353.707 270.018L351.519 270.123L351.102 270.227L350.789 270.383L350.581 270.488L350.425 270.644L350.164 270.853L350.008 271.166L349.904 271.426V271.739L350.164 272.678L350.32 274.086L351.05 275.39L351.102 275.546L351.154 275.755V276.015L351.102 276.224L351.05 276.485V276.693L350.998 276.902V277.11L351.05 277.319V277.528L351.154 277.684L351.206 278.101L351.258 278.31V278.518L351.154 278.831L350.998 279.144L350.685 279.613L350.529 279.926L350.477 280.239V280.917L350.425 281.074L350.32 281.23L350.112 281.178L349.956 281.074L349.383 280.5L349.278 280.396L349.122 280.291L348.914 280.187L348.445 280.083L347.976 280.031H347.559L347.142 280.135L346.726 280.344L346.465 280.552L346.257 280.761L346.1 280.917L344.277 284.463L343.964 284.88L343.443 285.454L343.131 285.663L342.662 285.923L341.463 286.236L341.255 286.758L340.89 287.331L340.369 287.905L339.223 288.844L339.067 289.104L338.858 289.626L338.702 290.252L338.39 292.233L338.129 293.172L338.077 293.38L337.66 293.798L334.326 296.509L332.606 297.448L332.242 297.552L331.148 297.761L330.887 297.917L330.627 298.282L330.158 299.064L329.845 299.847L329.689 300.264L329.533 300.733L329.324 301.202L329.116 301.62L325.417 305.061L325.156 305.426L325 306.052L324.844 307.564L324.687 308.086L324.218 309.025L323.281 309.598L322.916 308.555L321.926 307.825L320.832 307.252L319.634 306.939H317.341L316.403 306.678L313.329 305.218L311.923 303.445L311.037 302.558L310.047 302.141L308.067 301.567L306.192 300.055L305.358 299.586L303.326 299.273L300.304 297.813L299.262 297.709L298.429 298.074L296.97 299.221L296.189 299.69L294.105 299.847L292.073 299.169L287.071 295.779L284.049 293.745L279.985 290.982L277.12 288.322L273.056 284.672L271.024 283.368L266.596 281.804L262.688 279.561L256.332 274.138L254.613 271.896L255.082 271.426L257.843 268.35L259.25 267.411L263.418 265.69L265.033 265.117L270.086 263.291L270.243 263.187L270.399 263.031L270.451 262.718V262.457L270.347 262.301L270.243 262.144L269.305 260.945L269.097 260.632L268.94 260.267L268.888 260.11L268.836 259.902V259.693L268.888 259.485L269.097 259.172L269.357 258.755L271.649 256.251L271.858 256.095L272.066 255.991L272.431 255.939L272.744 255.991L273.108 255.834L273.473 255.521L276.495 252.497L277.901 251.402L280.923 250.724L281.496 250.359L294.417 250.672L294.782 250.567L295.407 250.202L296.084 249.733L296.189 249.577L296.293 249.42L296.345 249.212V249.003V248.429V248.221L296.397 248.012L296.657 247.856L297.022 247.804H297.96L298.22 247.856L298.429 247.908L298.585 248.012L298.741 248.169L298.846 248.325L298.898 248.482L299.21 249.785L299.262 249.994L299.471 250.307L299.783 250.724L301.346 252.288L302.284 252.914L303.014 253.488L303.118 253.696L303.222 253.957V254.531L303.17 255.156V255.417L303.222 255.73L303.274 256.147L303.43 256.408L303.587 256.564L305.619 257.086H306.713L307.182 256.929L307.807 256.512L310.724 255.104L310.881 255.052L315.257 254.061L315.83 254.009L316.56 254.531L318.383 255.939L318.852 256.199L319.269 256.304H319.477L321.77 255.365L322.03 255.104L323.02 253.592L323.228 253.383L323.489 253.175L323.958 252.914L324.479 252.758H324.896L327.24 253.123L329.845 253.644L330.47 253.748L331.096 254.896L331.2 255.469L330.991 256.512L330.939 257.138L330.991 257.451L331.096 257.659L331.304 257.816L331.512 257.92L331.721 258.025L332.138 258.077L335.472 257.972L335.837 257.868L335.993 257.816L336.149 257.659L336.253 257.503L336.358 257.294V257.086V256.929L336.306 256.512V256.304L337.921 256.408L345.163 258.233Z" fill="#6382A8" stroke="white" stroke-width="1.56373" stroke-linecap="round" stroke-linejoin="round"/>
<path d="M323.28 309.598L324.218 309.025L324.687 308.086L324.843 307.564L325 306.052L325.156 305.426L325.417 305.061L329.116 301.62L329.324 301.202L329.532 300.733L329.689 300.264L329.845 299.847L330.158 299.064L330.627 298.282L330.887 297.917L331.148 297.761L332.242 297.552L332.606 297.448L334.326 296.509L337.66 293.798L338.077 293.38L338.129 293.172L338.389 292.233L338.702 290.252L338.858 289.626L339.067 289.104L339.223 288.844L340.369 287.905L340.89 287.331L341.255 286.758L341.463 286.236L342.662 285.923L343.131 285.663L343.443 285.454L343.964 284.88L344.277 284.463L346.1 280.917L346.257 280.761L346.465 280.552L346.725 280.344L347.142 280.135L347.559 280.031H347.976L348.445 280.083L348.914 280.187L349.122 280.291L349.278 280.396L349.383 280.5L349.956 281.074L350.112 281.178L350.32 281.23L350.425 281.074L350.477 280.917V280.239L350.529 279.926L350.685 279.614L350.998 279.144L351.154 278.831L351.258 278.518V278.31L351.206 278.101L351.154 277.684L351.05 277.528V277.319L350.998 277.11V276.902L351.05 276.693V276.485L351.102 276.224L351.154 276.015V275.755L351.102 275.546L351.05 275.39L350.32 274.086L350.164 272.678L349.904 271.739V271.426L350.008 271.166L350.164 270.853L350.425 270.644L350.581 270.488L350.789 270.383L351.102 270.227L351.519 270.123L353.707 270.018L354.228 269.81L354.697 269.445L355.218 269.966L359.073 270.644L359.907 270.592L362.199 269.81L362.616 269.601L363.033 269.497H363.502L363.971 269.706L364.231 269.81L364.7 270.279L365.169 270.383L365.69 270.175L366.211 269.81L366.419 269.758H366.68H366.94L367.201 269.81L367.67 270.383L368.66 272.678L369.545 273.982L369.858 274.764L369.806 275.598L369.545 276.276L369.181 276.798L368.712 277.215L368.191 277.475L367.461 277.632H366.94L366.628 277.84L366.523 278.675L366.576 279.092L366.784 279.405L366.888 279.77V280.239L366.732 280.448L365.95 281.021L365.742 281.595L365.794 282.273L366.211 283.733L366.263 284.515L366.159 286.758L366.263 287.592L366.471 288.113L367.201 289.261L367.409 289.834L367.461 291.086L367.565 291.607L367.826 292.181L369.024 293.328L370.17 295.362L370.691 295.936L372.254 296.822L374.651 298.96L375.38 300.107L375.485 301.62L375.016 303.862L374.286 306L373.088 307.825L372.723 308.555L372.463 309.181L372.359 309.807L372.098 310.276L371.629 310.641L371.16 310.745L369.754 310.954L368.816 311.267L368.295 311.84L366.992 315.752L366.107 317.525L363.918 320.601L362.251 322.166L360.688 324.147L359.438 326.39L358.552 328.736L358.448 330.353L359.073 333.377L359.177 334.994L359.021 336.35L358.656 337.653L358.083 338.801L357.927 339.322L357.823 338.644L357.458 338.123L356.937 337.81L356.312 337.653L355.218 337.705L354.801 337.653L354.488 337.445L353.811 336.975L353.498 336.871L353.134 336.923L352.561 337.08L352.248 337.132L352.04 337.288L351.883 337.653L351.623 338.018L351.31 338.175L350.789 337.705L350.216 336.141L349.539 335.776L348.914 335.985L348.341 336.402L347.351 337.393L346.778 337.862L346.152 338.175L345.475 338.331L344.746 338.436L343.964 338.592L342.818 339.322L342.141 339.479L341.463 339.218L341.151 338.644L340.89 337.914L340.63 337.236L340.005 336.715L338.65 336.193L338.025 335.776L337.764 335.202L337.243 333.534L336.879 333.221L336.253 333.012L335.055 332.178L334.482 331.865H333.023L330.262 332.491L326.302 332.699L325.99 332.804L325.364 333.325L325.052 333.429H324.218L323.854 333.325L321.874 332.491L321.144 332.387L320.363 332.491L319.79 332.647L319.008 332.074L319.06 331.396L319.529 330.718L320.102 330.144L320.571 329.362L320.467 328.736L319.998 328.215L319.373 327.693L318.956 326.65L319.112 325.242L319.738 322.687L319.842 321.175L319.633 318.15L319.738 316.638L320.78 314.761L322.499 312.571L323.593 310.38L323.28 309.598Z" fill="#6382A8" stroke="white" stroke-width="1.56373" stroke-linecap="round" stroke-linejoin="round"/>
<path d="M492.605 212.083L492.553 211.874L492.293 210.936L492.241 210.414L492.345 209.684L492.449 208.954V208.485V208.224L492.397 208.015L491.98 207.65L490.417 207.181L490.053 207.129L489.844 206.972L489.271 206.086L488.854 205.773L488.542 206.034L488.229 206.451L487.708 206.503L485.885 206.138L484.426 205.669L483.592 205.721L482.967 205.825L482.238 205.721L481.977 205.617L481.717 205.46L480.518 203.791L480.258 203.322L479.997 203.061L479.633 202.853L478.07 202.331L477.601 202.279L477.236 202.331L477.08 202.436L476.819 202.383L476.402 202.279L475.569 201.81H475.256L475.1 201.966L475.048 202.644L474.891 202.592L474.579 202.123L473.954 200.871L473.016 199.515L473.902 198.629L473.433 197.638L473.068 197.169L473.016 196.856L473.172 196.647L474.162 195.709L474.527 195.448L474.944 194.874L478.07 194.04L479.059 194.509L480.31 193.936L480.675 193.831H481.352L482.081 193.883L482.915 193.779L486.874 194.77L487.395 194.822L487.916 194.718L489.74 194.666L490.157 194.561L490.365 194.457L490.469 194.405L490.73 194.196L491.459 190.859L491.616 190.181L493.335 189.66L494.481 189.503L494.689 189.294L495.054 188.252L495.21 187.991L495.784 187.521L496.148 187.782L497.034 189.138L497.659 189.555L498.545 189.816L500.16 189.972L500.316 190.077L500.368 190.233V190.442L500.316 190.702V191.641L500.889 191.902L501.619 191.954L502.244 192.215L503.494 194.248L504.432 195.239L505.63 195.761L506.933 195.917L510.84 195.552L511.987 195.917L512.143 197.064L512.039 197.742L512.456 197.69L513.862 196.699L516.103 195.656L516.571 195.969L516.988 196.595L517.613 197.012L519.385 196.908L520.323 197.117L520.479 197.899L519.541 199.15L518.134 199.985L515.269 201.028L512.664 202.644L510.476 203.218L509.434 203.687L508.704 204.782L508.34 207.442L507.454 207.859L506.36 207.337H505.787L505.578 208.015L505.526 208.589L505.37 209.163L505.109 209.632L504.641 210.049L503.442 210.101L501.306 208.641L500.16 208.485L499.274 208.015L498.284 206.868L497.242 205.982L496.357 206.399L496.252 207.025L496.93 208.12L496.878 208.85L496.721 209.528V209.945L496.982 210.31L498.284 211.248L498.597 212.083V213.021L498.232 214.012L497.607 214.847L496.93 215.003L496.096 214.69L494.325 213.647L493.856 213.491L492.501 213.543L492.084 213.387L492.241 213.021L492.605 212.917L493.126 212.865L493.543 212.761L493.7 212.344L493.387 212.083L492.866 212.031L492.605 212.083Z" fill="#6382A8" stroke="white" stroke-width="1.56373" stroke-linecap="round" stroke-linejoin="round"/>
<path d="M478.33 234.141L477.861 234.245L477.132 233.985L476.507 233.724L475.881 233.255L475.569 232.681L476.09 232.055H476.819L477.34 231.794L478.434 230.96L479.216 230.699L479.32 231.117L478.643 233.672L478.33 234.141ZM460.564 228.614L460.772 228.666L460.929 228.561L461.241 228.301L461.45 228.196L462.179 227.988L462.596 228.092L462.804 228.457L462.596 229.083L461.189 230.074L460.72 230.543L460.772 231.586L462.127 232.994L462.075 234.245L461.71 234.715L461.293 234.871H460.304L458.845 235.288L458.428 235.236L458.063 234.871L458.011 234.454L457.855 234.141L457.282 234.089L456.917 234.35L456.5 234.767L456.083 235.028L455.719 234.819L455.667 233.828L456.969 231.794L456.813 230.595L456.448 230.334L455.667 230.178L455.25 229.969L454.937 229.448L454.156 227.831L453.999 227.153L454.052 226.528L454.208 225.798L454.729 224.598L455.667 224.077L456.344 224.494L456.865 225.433L457.282 226.528L457.803 227.206L458.636 227.727L460.304 228.457L460.408 228.561L460.564 228.614ZM473.016 199.515L473.954 200.871L474.579 202.123L474.892 202.592L475.048 202.644L475.1 201.966L475.256 201.81H475.569L476.402 202.279L476.819 202.383L477.08 202.436L477.236 202.331L477.601 202.279L478.07 202.331L479.633 202.853L479.997 203.061L480.258 203.322L480.518 203.791L481.717 205.46L481.977 205.617L482.238 205.721L482.967 205.825L483.592 205.721L484.426 205.669L485.885 206.138L487.708 206.503L488.229 206.451L488.542 206.034L488.854 205.773L489.271 206.086L489.844 206.972L490.053 207.129L490.417 207.181L491.98 207.65L492.397 208.015L492.449 208.224V208.485V208.954L492.345 209.684L492.241 210.414L492.293 210.936L492.553 211.874L492.606 212.083L491.251 212.135L490.73 212.239L488.698 213.387L488.438 213.804L488.229 214.534L487.812 215.629L487.031 216.463L484.374 217.767L484.217 218.341L484.426 218.966L484.999 219.331L485.885 219.748L486.301 220.061L486.458 220.374L486.249 220.791L485.833 220.896L485.364 220.844L484.999 220.687L484.791 220.635H484.582L484.217 220.739L483.071 220.635L481.873 220.374L480.727 220.426L479.789 221.365L479.268 222.617L478.903 223.19L478.434 223.66L476.819 224.598L476.402 224.702L475.777 224.442L475.621 223.816V222.199L475.413 221.417L474.996 220.531L474.423 220.061L473.902 220.531L473.693 221.313L473.641 221.991L473.381 222.46L472.651 222.512L471.192 222.252L470.515 221.939L469.89 221.574L469.317 221L469.056 220.426L468.796 219.957L467.441 219.54L466.503 218.653L465.878 218.601L464.94 218.706L464.419 218.653L464.003 218.445L463.69 218.08L463.43 217.663L463.117 217.454L462.7 217.558L462.179 218.288L461.919 219.175L461.502 219.853L460.564 219.957L457.021 219.436L455.25 219.748L454.156 220.844L453.531 220.791L450.873 221.052L446.549 222.356L445.247 222.46L443.996 222.408L442.746 221.521L442.225 219.853L441.808 217.975L441.027 216.672L440.349 216.411L439.776 216.463L439.203 216.62L438.526 216.672L437.901 216.515L436.39 215.837L436.806 214.429L436.702 214.273L436.442 213.96L436.39 213.908L436.025 213.334L435.973 213.23L435.921 213.021L435.869 212.187L436.338 211.405L437.223 210.831L439.307 210.362L439.62 210.206L439.932 209.84L440.662 208.589L441.079 208.172L441.495 207.963L441.912 207.859L442.381 207.65L442.746 207.285L443.84 205.982L445.663 204.469L446.132 204.052L446.549 203.687L446.81 203.583L447.331 203.479L447.435 203.322L447.487 203.114L447.591 202.957L448.06 202.644L448.842 202.175L449.154 201.758L449.415 201.393L449.779 201.028L450.248 200.767L450.665 200.715L451.499 200.819L451.915 200.767L453.322 199.463H453.947L454.416 199.672L454.677 199.828L454.885 200.037L455.823 200.141L459.262 199.985L457.334 202.592L457.49 202.801L458.688 202.905L458.897 203.009L459.783 203.948L459.991 204.052L460.304 204.156L460.877 204.261L461.189 204.365L461.814 204.887L463.221 205.669L463.638 205.773L464.315 205.669L466.295 203.791L467.233 202.279L467.858 201.81L470.515 200.35L473.016 199.515Z" fill="#6382A8" stroke="white" stroke-width="1.56373" stroke-linecap="round" stroke-linejoin="round"/>
<path d="M491.616 190.181L491.459 190.859L490.73 194.196L490.469 194.405L490.365 194.457L490.157 194.561L489.74 194.666L487.917 194.718L487.396 194.822L486.875 194.77L482.915 193.779L482.081 193.883L481.352 193.831H480.675L480.31 193.936L479.06 194.509L478.07 194.04L474.944 194.874L474.527 195.448L474.162 195.709L473.172 196.647L473.016 196.856L473.068 197.169L473.433 197.638L473.902 198.629L473.016 199.515L470.515 200.35L467.858 201.81L467.233 202.279L466.295 203.791L464.315 205.669L463.638 205.773L463.221 205.669L461.815 204.887L461.189 204.365L460.877 204.261L460.304 204.156L459.991 204.052L459.783 203.948L458.897 203.009L458.689 202.905L457.49 202.801L457.334 202.592L459.262 199.985L455.823 200.141L454.885 200.037L454.677 199.828L454.416 199.672L453.947 199.463H453.322L451.916 200.767L451.499 200.819L450.665 200.715L450.248 200.767L449.779 201.028L449.415 201.393L449.154 201.758L448.842 202.175L448.06 202.644L448.112 202.331L448.373 200.975L447.227 200.298L444.465 199.62L443.996 199.046L443.892 198.316L444.205 197.847L444.778 197.742L445.82 198.681L446.445 198.89L446.497 198.16L446.237 197.794L440.714 191.537L439.776 190.702L439.672 190.598L439.62 190.442L438.995 189.816L439.255 188.877L439.151 185.905L439.047 185.018L438.422 183.975L437.796 183.141L437.64 182.828L437.536 182.567V182.255L437.588 182.046L438.161 180.794L438.265 180.534L438.422 180.012L438.317 179.647L437.484 179.543L437.38 179.387L437.275 179.178L437.223 178.552L437.171 178.083L437.223 177.822L437.275 177.561L438.786 175.58L439.047 175.11L439.412 174.12H439.62L440.61 173.755L444.361 171.617L445.351 171.46L445.924 171.825L446.445 172.503L448.164 175.423L448.425 176.258L448.477 177.092L448.06 179.595L448.112 180.273L448.477 180.847L448.946 180.794L449.571 180.482L450.248 180.429L450.821 180.69L451.342 181.055L451.863 181.577L452.28 182.15L452.801 182.672L453.426 182.724L454.729 182.567L456.188 182.828L456.865 183.141L457.49 183.61L458.011 183.923L459.157 184.08L459.626 184.497L460.408 185.748L460.877 186.113L461.189 185.331L461.137 184.497L460.981 183.767L461.033 183.193L461.658 182.828L462.388 182.933L462.752 183.402L463.117 184.914L463.378 185.488L463.794 185.905L464.211 185.853L464.524 185.071L465.253 184.132L467.337 185.905L468.014 185.331L468.171 183.923L467.91 176.988L468.119 176.466L468.535 176.571L469.994 177.926L471.297 178.5L472.339 178.291L473.172 177.405L474.162 175.215L474.579 173.859L474.735 173.077L474.631 172.347L473.745 171.199L473.433 170.521L474.058 169.009L474.423 168.54L475.1 168.279L475.777 168.383L476.142 168.905L476.298 169.687V170.521L475.725 172.816L475.777 173.285L476.038 173.39L476.246 173.077L476.35 172.66L476.507 172.399L476.819 172.555L476.976 173.181L477.288 173.337L477.497 173.129L477.549 172.242L477.757 172.086L477.965 172.19L478.226 172.399L481.091 176.675L481.56 177.874L481.717 179.23L481.665 180.899L481.821 182.62L482.602 182.985L484.999 182.567L485.728 183.193L486.197 183.871L486.718 184.132L487.604 183.61L488.281 182.985L489.011 182.567L489.74 182.411L490.522 182.88L490.834 183.663L490.99 184.758L491.043 185.905L491.303 187.991V188.773L491.095 189.503L490.678 190.494L491.616 190.181ZM444.622 192.371L444.257 191.38L443.84 190.702L443.111 190.077L442.277 189.712L441.808 189.816L442.121 190.65L442.694 191.224L443.58 192.423L444.101 192.893L444.674 193.049L444.622 192.371Z" fill="#6382A8" stroke="white" stroke-width="1.56373" stroke-linecap="round" stroke-linejoin="round"/>
<path d="M372.671 203.948L372.567 205.564L372.202 205.982L370.535 206.294L370.118 206.347L369.962 206.451L369.806 206.555L369.754 206.764L369.702 207.702L369.493 209.215L369.597 209.423L369.754 209.58L370.223 209.475L370.796 209.319H371.056L371.16 209.788L367.565 218.028L367.461 218.601L367.357 219.227L367.513 220.322L367.618 220.635L367.774 220.948L367.93 221.052L368.764 221.209L375.641 221.365L384.706 219.123H384.811L384.863 219.175L384.706 219.488L384.55 219.696L384.446 219.905L384.29 220.166L383.873 221.678L383.769 221.939L383.664 222.304L384.029 222.982V223.034L382.831 223.347L382.206 223.816L382.987 224.65L384.342 225.537L385.384 225.954L385.696 225.902L384.394 227.623L383.925 228.457L383.769 228.874V229.187V229.448L383.821 229.656L383.925 230.021L384.133 230.439L384.342 231.169L384.446 231.534L384.498 231.742V232.107L384.446 233.411L384.342 233.62H384.185L384.133 233.463L383.977 233.307L383.821 233.255L383.664 233.202L383.404 233.359L383.352 233.515L383.456 233.672L383.56 233.828L384.133 234.141L384.29 234.298L384.342 234.454L384.29 234.663L384.237 234.923L384.081 235.288L384.029 235.914L383.977 236.279H383.873L383.56 236.227L383.248 237.113L382.935 243.475L382.779 244.414L382.362 245.196L381.632 245.926L380.33 246.761L379.913 247.334L380.278 248.117L379.653 248.377L377.777 248.899L376.318 249.003L374.807 248.899L372.359 248.012L367.826 247.908L357.458 245.196L356.051 245.144L354.905 245.509L352.092 247.543L349.695 247.908L349.07 248.534L349.278 250.255L349.174 250.411L349.07 250.515L348.914 250.567L348.757 250.62L347.976 250.515L347.507 250.567L345.215 248.534L343.964 247.439L343.547 246.917L343.235 246.239L343.287 243.528L343.391 243.215L343.599 242.85L343.964 242.745H344.902L345.162 242.693L345.423 242.589L345.579 242.38L345.631 242.172V241.702V241.442L345.579 241.077L345.527 240.868L345.475 240.607V240.242V239.669L345.579 239.408L345.631 239.199L345.84 238.991L346.309 238.626L347.299 238.104L347.924 237.896L348.757 237.687H348.966L349.435 237.583L349.539 237.27L348.757 233.567L348.236 232.733L342.974 231.742L342.297 231.69L341.984 231.794L341.724 231.742L341.515 231.638L340.994 231.325H340.786L340.578 231.377L340.109 231.429L339.744 231.377L337.347 230.699L336.983 230.126L336.879 230.178H336.722L336.305 230.334L335.263 229.187L335.211 228.979V228.613L335.316 228.353L335.263 227.831L335.107 227.571L334.899 227.414H334.69H334.482L334.326 227.466L333.753 227.727L333.596 227.779L333.336 227.831H333.075L332.711 227.727L332.606 227.571L332.502 227.362L332.346 225.589L332.398 225.38L332.45 225.172L332.606 225.067L333.179 224.911L333.336 224.755L333.44 224.65L333.544 224.285L333.596 223.347L332.763 222.356L332.658 222.043V221.73L332.763 221.521V221.209L332.658 221.052L332.502 220.896L331.877 220.635L331.669 220.426L331.564 220.218L331.46 220.061L331.043 217.975L330.991 217.298L330.939 215.42V215.159L330.991 214.899L331.043 214.69L331.304 214.064L331.46 213.491L331.512 212.969L331.46 212.552L331.304 212.187L331.095 211.666L330.939 211.457L330.783 211.301L330.574 211.353L329.793 211.509L329.116 211.561L328.595 211.457L328.126 211.353L326.875 210.988L323.072 210.831L322.812 210.623L327.448 201.601L328.282 199.463L327.605 198.264L327.344 197.586L327.292 197.377V196.699L327.396 195.969V195.604V195.291L327.292 195.135L327.188 194.979L327.032 194.822L324.322 194.092L323.906 193.831L323.697 193.727L323.437 193.414L323.28 193.049L323.176 192.893L323.124 192.684L322.655 187.052L323.02 186.583L323.28 185.957L326.98 184.445V184.288L328.699 184.758L332.242 184.549L335.211 184.34L342.818 183.871L346.725 183.663L353.082 183.245L356.937 183.037L357.666 183.245L358.917 183.923L359.594 184.132L360.167 184.028L361.053 183.454L361.939 182.88L362.668 182.359L362.876 182.985L363.033 183.506L363.137 183.61L363.345 184.028L364.023 184.914L364.7 185.801L365.013 186.531L365.117 187.313L365.221 188.043L365.429 188.408L365.638 188.721L366.002 188.408L366.367 188.252L366.732 188.304L367.097 188.721L367.513 187.834L368.139 187.782L368.243 188.617V188.721L368.191 189.086L368.503 189.19L368.555 189.242L367.878 189.764L367.618 189.92L367.878 190.025L367.982 190.233L368.243 190.702V191.85L368.086 192.528L367.93 193.206L367.722 193.831L367.513 194.509L367.044 195.552L366.68 196.074L366.263 196.595L365.742 196.96L364.7 197.482L364.387 197.69L364.335 198.003L364.492 198.159L365.69 198.42L366.628 198.942L369.389 201.705L370.431 202.488L371.421 203.322L372.671 203.948Z" fill="#6382A8" stroke="white" stroke-width="1.56373" stroke-linecap="round" stroke-linejoin="round"/>
<path d="M383.977 236.279L384.029 235.914L384.081 235.288L384.237 234.923L384.29 234.663L384.342 234.454L384.29 234.298L384.133 234.141L383.56 233.828L383.456 233.672L383.352 233.515L383.404 233.359L383.664 233.202L383.821 233.255L383.977 233.307L384.133 233.463L384.185 233.62H384.342L384.446 233.411L384.498 232.107V231.742L384.446 231.534L384.342 231.169L384.133 230.439L383.925 230.021L383.821 229.656L383.769 229.448V229.187V228.874L383.925 228.457L384.394 227.623L385.696 225.902L392.782 224.494L394.189 225.485L394.397 226.058L394.449 226.684V227.258L394.189 227.727L393.511 227.831L391.271 227.518L390.698 227.675L389.604 228.614L389.187 228.77L388.51 227.518L388.041 227.153L387.676 227.883L387.728 228.248L388.249 228.666L388.353 228.979L388.301 229.761L388.353 230.126L388.51 230.543L391.167 234.245L391.271 235.132L389.968 235.653L389.291 234.558L388.822 232.89L388.197 231.534L387.572 231.064L387.363 231.377L387.468 232.107L387.78 232.994L388.458 234.402L388.405 234.975L388.041 235.758L387.937 235.81L387.624 235.862L387.52 235.914L387.311 236.54V236.801L387.259 237.166L387.051 237.426L386.634 237.218L385.853 235.914L385.332 235.497L384.29 236.436L383.977 236.279ZM397.106 221.73L396.116 221.209L395.439 221.104L390.542 221.887L389.916 222.147L388.874 222.721L388.145 222.825L386.426 222.512L385.748 222.564L384.029 223.034V222.982L383.664 222.304L383.769 221.939L383.873 221.678L384.29 220.166L384.446 219.905L384.55 219.696L384.706 219.488L384.863 219.175L384.811 219.123H384.706L375.641 221.365L368.764 221.209L367.93 221.052L367.774 220.948L367.618 220.635L367.513 220.322L367.357 219.227L367.461 218.601L367.565 218.028L371.16 209.788L371.056 209.319H370.796L370.223 209.476L369.754 209.58L369.597 209.423L369.493 209.215L369.702 207.702L369.754 206.764L369.806 206.555L369.962 206.451L370.118 206.347L370.535 206.295L372.202 205.982L372.567 205.564L372.671 203.948L375.016 205.199L378.559 207.077L378.663 206.868L379.027 206.503H379.496L379.705 206.242L379.913 205.877L380.174 205.721L380.538 205.773L381.737 206.347L382.518 206.503L383.195 206.086L383.352 205.564L382.779 205.252L383.508 204.052L383.56 203.791L383.3 203.322L383.143 202.853L382.987 202.331L383.039 201.81L382.258 201.653L381.997 201.497L381.737 201.184L381.528 200.402L381.372 198.733L381.216 197.064L381.268 196.752L381.32 196.439L381.528 196.23L381.685 196.074L381.893 195.656L381.945 195.239L381.841 194.353L381.893 193.936L381.997 193.988L382.31 194.092L382.414 194.196L382.779 193.258L383.612 192.684L384.237 192.371L385.8 193.779L386.009 194.144L386.113 194.561L386.165 195.5L386.269 195.813L386.426 195.917L386.686 195.709H386.79L386.895 195.969L386.999 196.647L387.468 196.439L388.145 196.595L388.822 196.856L389.291 197.221L389.552 197.586L389.864 198.264L390.125 198.525L390.333 198.681L391.115 199.098L391.479 199.359L391.636 199.568L391.948 200.245V200.402L391.896 200.871L391.948 201.08L392.157 201.236L392.365 201.288L392.574 201.236L392.782 201.288L393.199 201.706L393.511 202.175L393.616 202.696L393.199 203.218L393.668 203.531L394.084 203.374L394.501 203.114L394.97 202.957L395.283 203.114L395.126 203.531L394.658 204.313L395.96 204.104L396.481 204.156L396.846 205.147L397.419 205.617L397.575 205.982L397.419 206.295L396.95 206.764V207.077L397.158 207.233L397.471 207.025L397.784 206.66L398.096 206.503L398.357 206.66L398.565 206.92V207.181L397.784 207.546L397.523 208.12L397.158 209.528L397.523 209.476L397.836 209.528L398.148 209.632L398.409 209.841L397.836 210.153L397.888 210.466L398.2 210.779L398.409 211.04L398.461 211.353L398.565 211.718L398.617 212.083L398.513 212.396L398.044 212.969L397.888 213.282L397.731 213.647L397.627 213.96L397.002 217.61L397.419 218.706L397.627 219.018L397.679 219.592L397.263 221.156L397.106 221.73Z" fill="#6382A8" stroke="white" stroke-width="1.56373" stroke-linecap="round" stroke-linejoin="round"/>
<path d="M439.411 174.12L439.047 175.11L438.786 175.58L437.275 177.561L437.223 177.822L437.171 178.083L437.223 178.552L437.275 179.178L437.38 179.387L437.484 179.543L438.317 179.647L438.422 180.012L438.265 180.534L438.161 180.794L437.588 182.046L437.536 182.255V182.567L437.64 182.828L437.796 183.141L438.422 183.975L439.047 185.018L439.151 185.905L439.255 188.877L438.995 189.816L438.63 189.399L437.275 188.825L436.129 189.138L435.296 193.362L433.628 195.344L431.44 196.699L428.314 197.951L425.449 200.141L419.874 201.914L419.197 202.227L418.571 202.748L417.321 204.365L416.592 204.991L415.81 205.252L414.872 204.939L414.456 204.574L414.143 204.156L413.622 203.218L413.257 202.801L412.528 202.279L412.163 201.966L410.965 200.141L410.288 199.463L409.298 199.359L408.829 199.098L408.464 198.681L408.047 198.368L407.526 198.316L406.536 198.629L406.067 198.89L405.599 199.255L404.869 200.245L404.4 201.288L404.192 202.488L404.14 203.948L404.348 206.086L404.244 206.607L403.775 206.868L401.952 207.025L400.857 207.807V208.641L402.056 210.675H402.108L402.733 212.917L403.046 213.647L403.827 215.055L404.14 215.837L404.348 216.724L404.088 218.653L403.15 218.81L401.952 218.393L401.17 218.497L401.326 219.644L403.515 221.626V222.564L402.368 223.086L400.857 223.034L398.148 222.252L397.106 221.73L397.263 221.156L397.679 219.592L397.627 219.018L397.419 218.706L397.002 217.61L397.627 213.96L397.731 213.647L397.888 213.282L398.044 212.969L398.513 212.396L398.617 212.083L398.565 211.718L398.461 211.353L398.409 211.04L398.2 210.779L397.888 210.466L397.836 210.153L398.409 209.84L398.148 209.632L397.836 209.528L397.523 209.475L397.158 209.528L397.523 208.12L397.784 207.546L398.565 207.181V206.92L398.357 206.66L398.096 206.503L397.784 206.66L397.471 207.025L397.158 207.233L396.95 207.077V206.764L397.419 206.294L397.575 205.982L397.419 205.617L396.846 205.147L396.481 204.156L395.96 204.104L394.658 204.313L395.126 203.531L395.283 203.114L394.97 202.957L394.501 203.114L394.084 203.374L393.668 203.531L393.199 203.218L393.616 202.696L393.511 202.175L393.199 201.706L392.782 201.288L392.574 201.236L392.365 201.288L392.157 201.236L391.948 201.08L391.896 200.871L391.948 200.402V200.245L391.636 199.567L391.479 199.359L391.115 199.098L390.333 198.681L390.125 198.525L389.864 198.264L389.552 197.586L389.291 197.221L388.822 196.856L388.145 196.595L387.468 196.439L386.999 196.647L386.895 195.969L386.79 195.709H386.686L386.426 195.917L386.269 195.813L386.165 195.5L386.113 194.561L386.009 194.144L385.801 193.779L384.238 192.371L385.436 191.85L386.061 191.12L386.634 189.503L387.207 187.887L387.572 187.417L388.041 186.948L389.083 186.479L390.073 186.009L390.854 184.706L391.063 184.445L391.219 184.184L391.844 183.975L393.147 183.819L393.72 183.558L394.241 183.298L394.762 182.933L395.283 182.567L395.804 182.046L396.064 181.577L396.273 179.647L396.533 177.77L396.481 177.092L396.429 176.623L396.325 176.466L396.168 176.362L395.908 175.997L395.804 175.684L395.96 175.371L396.221 175.163L397.627 174.485L398.2 174.328L398.721 174.537L399.034 173.702L399.815 172.972L400.597 172.451L401.431 171.929L401.952 171.773L402.837 172.138L403.254 172.086L404.452 171.304L404.869 171.199L405.807 171.356L406.693 171.512L407.057 171.304L407.005 170.887L406.484 169.948L406.38 169.531L406.588 169.009L406.797 168.488L407.578 167.862L409.298 167.34L410.861 166.089L412.372 164.89L412.84 164.368L413.257 163.899L413.778 163.482L415.81 162.908L417.842 162.334L419.561 162.282L421.229 162.178L422.479 161.656L423.417 160.561L423.834 159.936L424.302 159.571L425.136 159.258L425.97 158.945L428.523 157.067L428.887 156.598L429.252 156.181L430.294 154.356L431.336 152.583L431.753 152.113L432.274 151.853L432.847 151.644L433.316 151.383L433.733 150.966L433.837 150.601L433.941 150.236L434.67 148.567L435.348 147.994L435.973 147.42L438.943 146.169L439.359 146.221L439.932 146.638L440.401 147.16L440.662 147.733L440.87 148.463L441.339 148.933L441.964 149.193L442.694 149.298L443.163 149.089L443.632 148.88L444.257 147.681L444.569 146.899L444.83 146.169L445.507 144.813L445.976 144.344L446.393 143.822L446.705 143.248L446.966 142.518L447.383 141.893H448.112L449.519 142.258L450.665 142.101L451.238 141.84L451.811 141.528L453.843 139.859L454.52 139.233L455.823 138.19L456.813 138.086L457.751 138.503L462.023 141.528L463.065 141.893L462.648 143.457L461.502 144.239L459.001 144.969L454.729 148.15L453.478 148.463L451.968 148.411L450.769 148.724L450.196 150.236L450.144 152.583L449.779 153.261L448.737 153.678L445.716 153.991L444.778 154.564L441.808 157.12L440.506 158.684L439.62 160.613L438.89 161.709L437.953 162.282L436.963 162.804L435.191 164.212L430.294 167.132L429.617 168.175L430.19 169.479L431.284 170.052L435.556 170.521L435.608 170.574L436.702 171.252L437.223 171.721L437.692 172.294L438.422 173.702L438.89 174.12H439.411ZM405.859 178.448L405.546 178.083L405.807 177.718L405.494 177.248L405.078 176.988L405.546 176.206L405.39 175.528L404.296 174.798L403.358 174.693L402.629 174.172L401.639 174.224L400.024 175.84L399.763 177.092L398.982 179.074L399.086 179.126L399.607 178.865L399.659 179.334L399.868 179.804L400.597 180.638L401.118 180.169V180.325L400.962 180.69L401.326 181.368L402.212 181.629L403.202 180.429L404.713 179.021L405.859 178.448Z" fill="#6382A8" stroke="white" stroke-width="1.56373" stroke-linecap="round" stroke-linejoin="round"/>
<path d="M405.859 178.448L404.713 179.021L403.202 180.429L402.212 181.629L401.326 181.368L400.962 180.69L401.118 180.325V180.169L400.597 180.638L399.868 179.804L399.659 179.334L399.607 178.865L399.086 179.126L398.982 179.074L399.763 177.092L400.024 175.841L401.639 174.224L402.629 174.172L403.358 174.693L404.296 174.798L405.39 175.528L405.546 176.206L405.077 176.988L405.494 177.248L405.807 177.718L405.546 178.083L405.859 178.448Z" fill="#6382A8" stroke="white" stroke-width="1.56373" stroke-linecap="round" stroke-linejoin="round"/>
</g>
<defs>
<clipPath id="clip0">
<rect width="521" height="340" fill="white"/>
</clipPath>
</defs>
</svg>
